<svg width="229" height="93" viewBox="0 0 229 93" fill="none" xmlns="http://www.w3.org/2000/svg">
<path d="M91.3258 32.6369C89.0945 30.4641 86.0924 29.5866 83.0903 29.5866C77.7758 29.5866 72.5019 32.428 72.5019 38.5287C72.5019 49.1005 86.133 45.3816 86.133 51.8584C86.133 54.5744 83.4555 55.9116 81.1025 55.9116C78.8306 55.9116 76.6805 54.7834 75.4229 52.8194L71.5688 56.6637C73.9218 59.5469 77.4107 60.6752 80.9808 60.6752C86.6198 60.6752 91.488 57.583 91.488 51.2316C91.488 40.7016 77.857 44.0862 77.857 38.1527C77.857 35.4366 80.21 34.3502 82.5629 34.3502C84.5508 34.3502 86.4981 35.1023 87.5935 36.6902L91.3258 32.6369Z" fill="white"/>
<path d="M98.5153 44.128V53.3209C98.5153 58.0427 99.7324 60.4244 104.885 60.4244C106.02 60.4244 107.724 60.2573 108.739 59.7559V55.5355C108.13 55.9952 106.954 56.1623 106.102 56.1623C103.951 56.1623 103.384 54.9087 103.384 52.903V44.128H108.739V39.8659H103.384V34.0577H98.5153V39.8659H94.499V44.128H98.5153Z" fill="white"/>
<path d="M112.944 59.923H117.813V49.1841C117.813 48.0977 118.462 44.128 123.046 44.128C123.817 44.128 124.588 44.2952 125.399 44.5041V39.6569C124.831 39.4898 124.263 39.3644 123.655 39.3644C121.099 39.3644 118.949 40.7434 117.894 43.0416H117.813V39.8659H112.944V59.923Z" fill="white"/>
<path d="M129.199 59.923H134.067V39.8659H129.199V59.923ZM128.509 33.0548C128.509 34.6427 129.808 36.0634 131.593 36.0634C133.378 36.0634 134.757 34.768 134.757 33.0548C134.757 31.3416 133.378 30.0462 131.593 30.0462C129.808 30.0462 128.509 31.4669 128.509 33.0548Z" fill="white"/>
<path d="M140.062 59.923H144.93V49.6855H145.011L152.76 59.923H159.21L150.326 48.9752L158.683 39.8659H152.435L144.93 48.1812V28.333H140.062V59.923Z" fill="white"/>
<path d="M181 51.6494V50.2705C181 43.2923 177.308 39.3644 171.872 39.3644C165.99 39.3644 161.284 43.5848 161.284 49.8944C161.284 56.2041 165.99 60.4244 171.872 60.4244C174.955 60.4244 177.836 59.2962 180.108 56.413L176.619 53.6969C175.402 55.243 173.82 56.413 171.385 56.413C168.667 56.413 166.477 54.6162 166.152 51.6494H181ZM166.152 47.8887C166.517 45.0055 168.302 43.1252 171.183 43.1252C174.225 43.1252 176.091 44.9637 176.132 47.8887H166.152Z" fill="white"/>
<path d="M43.5524 42.0303V24L31 50.9697H43.4129V69L55.9653 42.0303H43.5524Z" fill="#107DEF"/>
<path d="M25 85L25 2.38419e-06" stroke="#464646"/>
<path d="M193 93L193 8" stroke="#464646"/>
<path d="M202 14L13 14" stroke="#464646"/>
<path d="M229 79L3.8147e-06 79" stroke="#464646"/>
</svg>
