<svg width="20" height="30" viewBox="0 0 20 30" fill="none" xmlns="http://www.w3.org/2000/svg">
<path d="M10 6.25C9.30964 6.25 8.75 6.80964 8.75 7.5V12.5C8.75 13.1904 9.30964 13.75 10 13.75C10.6904 13.75 11.25 13.1904 11.25 12.5V7.5C11.25 6.80964 10.6904 6.25 10 6.25Z" fill="#107DEF"/>
<path fill-rule="evenodd" clip-rule="evenodd" d="M0 10C0 4.47715 4.47715 0 10 0C15.5228 0 20 4.47715 20 10V20C20 25.5228 15.5228 30 10 30C4.47715 30 0 25.5228 0 20V10ZM17.5 10V20C17.5 24.1421 14.1421 27.5 10 27.5C5.85786 27.5 2.5 24.1421 2.5 20V10C2.5 5.85786 5.85786 2.5 10 2.5C14.1421 2.5 17.5 5.85786 17.5 10Z" fill="#107DEF"/>
</svg>
