<svg width="192" height="149" viewBox="0 0 192 149" fill="none" xmlns="http://www.w3.org/2000/svg">
<path d="M96.4998 17.5C87.0165 20.4161 42.7265 30.8808 33.2435 33.7992C32.8401 33.8022 32.4439 33.9069 32.0916 34.1035C31.7393 34.3001 31.4422 34.5824 31.2279 34.9242L14.7654 61.2211C14.5806 61.5161 14.4623 61.8477 14.4185 62.193C14.3747 62.5383 14.4065 62.889 14.5118 63.2207C14.617 63.5525 14.7931 63.8574 15.0279 64.1143C15.2628 64.3712 15.5506 64.574 15.8716 64.7086L30.8623 71.0086V108.827C30.8629 109.316 31.0128 109.793 31.2917 110.194C31.5706 110.595 31.9654 110.902 32.4232 111.073L94.9919 134.449C95.3063 134.566 95.6416 134.615 95.9763 134.595C95.9846 134.595 95.9915 134.599 95.9997 134.599C96.0214 134.599 96.0391 134.586 96.0607 134.585C96.2163 134.571 96.3702 134.541 96.5201 134.496C96.7384 134.446 96.9426 134.381 97.1341 134.276L159.239 111.073C159.697 110.902 160.091 110.595 160.37 110.194C160.649 109.793 160.799 109.316 160.8 108.827V71.1352L176.128 64.7086C176.449 64.574 176.737 64.3712 176.972 64.1143C177.206 63.8574 177.383 63.5525 177.488 63.2207C177.593 62.889 177.625 62.5383 177.581 62.193C177.537 61.8477 177.419 61.5161 177.234 61.2211L160.734 34.9242C160.524 34.5883 160.233 34.3098 159.889 34.1135C159.545 33.9172 159.157 33.8092 158.761 33.7992C149.275 30.8823 105.985 20.4192 96.4998 17.5V19.5C103.886 21.7731 143.667 34.176 151.054 36.4477L95.9201 56.6836L40.9216 36.457C48.3154 34.1817 89.105 21.7739 96.4998 19.5V17.5ZM34.2654 39.1242L92.3716 60.4945L78.3138 85.7414L20.3341 61.3758L34.2654 39.1242ZM157.701 39.1242L171.665 61.3758L113.55 85.7461L99.4638 60.4898L157.701 39.1242ZM94.3826 66.7523C94.8108 67.1475 95.3747 133.399 95.9997 133.399C96.575 133.399 97.0852 67.1681 97.4997 66.8273L110.404 89.9602C110.692 90.4756 111.159 90.8671 111.717 91.0599C112.274 91.2528 112.884 91.2334 113.428 91.0055L156 73.1508V107.159L95.831 129.635L35.6623 107.159V73.0242L78.4357 91.0008C78.9806 91.23 79.5909 91.2501 80.1497 91.0572C80.7084 90.8643 81.1764 90.472 81.4638 89.9555L94.3826 66.7523Z" fill="#34384C"/>
</svg>
