<svg width="24" height="24" viewBox="0 0 24 24" fill="none" xmlns="http://www.w3.org/2000/svg">
<g clip-path="url(#clip0_1744_4564)">
<path fill-rule="evenodd" clip-rule="evenodd" d="M12 24C5.37225 24 0 18.6278 0 12C0 5.37225 5.37225 0 12 0C18.6278 0 24 5.37225 24 12C24 18.6278 18.6278 24 12 24ZM17.9955 12.1642L12.3735 3L6.75 12.165L12.3735 15.4298L17.9955 12.1642ZM18 13.212L12.3735 16.4753L6.75 13.2128L12.3735 20.9963L18 13.212Z" fill="white"/>
<path d="M12.373 3V9.6525L17.9958 12.165L12.373 3Z" fill="white" fill-opacity="0.5"/>
<path opacity="0.8" d="M12.3735 3L6.75 12.165L12.3735 9.6525V3Z" fill="white"/>
<path d="M12.373 16.4749V20.9952L17.9995 13.2109L12.373 16.4749Z" fill="white" fill-opacity="0.5"/>
<path opacity="0.796" d="M12.3735 20.9952V16.4742L6.75 13.2109L12.3735 20.9952Z" fill="white"/>
<path d="M6.75 12.1633L12.3735 15.4281V9.65234L6.75 12.1633Z" fill="white" fill-opacity="0.5"/>
</g>
<defs>
<clipPath id="clip0_1744_4564">
<rect width="24" height="24" fill="white"/>
</clipPath>
</defs>
</svg>
