<svg width="102" height="102" viewBox="0 0 102 102" fill="none" xmlns="http://www.w3.org/2000/svg">
<path d="M28.6487 10.5444C27.3515 10.3472 27.2963 10.3268 27.9104 10.2384C29.0834 10.0616 31.8434 10.2996 33.7478 10.7416C38.1914 11.7752 42.2348 14.4272 46.5542 19.1396L47.6996 20.3908L49.3418 20.1324C56.2556 19.0444 63.2799 19.908 69.1656 22.5668C70.7871 23.3012 73.3401 24.7564 73.6506 25.1304C73.761 25.2528 73.9473 26.0144 74.0646 26.8372C74.5062 29.6796 74.2923 31.8488 73.4022 33.474C72.9192 34.358 72.8916 34.6368 73.2159 35.3984C73.3709 35.7121 73.6122 35.9766 73.9123 36.1617C74.2124 36.3468 74.5592 36.4452 74.9133 36.4456C76.3761 36.4456 77.9493 34.1336 78.6738 30.9104L78.9636 29.6252L79.5363 30.2644C82.6896 33.7596 85.1598 38.5196 85.5807 41.906L85.6911 42.79L85.1667 41.9876C84.4044 40.7587 83.3803 39.7076 82.1652 38.9072C80.0538 37.5404 77.8182 37.0712 71.9118 36.7652C66.5712 36.4932 63.549 36.0444 60.5543 35.0856C55.4552 33.4536 52.8884 31.2912 46.8302 23.512C44.1392 20.0508 42.4832 18.14 40.8272 16.6032C37.0667 13.1012 33.3752 11.2652 28.6487 10.5512V10.5444Z" fill="white"/>
<path d="M74.8643 18.2658C74.9954 15.9538 75.3128 14.4238 75.9614 13.0298C76.1035 12.6775 76.2815 12.3403 76.4927 12.0234C76.5272 12.0234 76.4168 12.4314 76.2443 12.9278C75.7751 14.2878 75.6923 16.1374 76.0235 18.293C76.4375 21.0266 76.6652 21.421 79.6115 24.3722C80.9984 25.7594 82.6061 27.5002 83.1926 28.255L84.2552 29.615L83.1926 28.6426C81.8954 27.4526 78.9146 25.127 78.2522 24.7938C77.8106 24.5762 77.7416 24.5762 77.4725 24.8414C77.2172 25.0862 77.1689 25.4534 77.1275 27.1942C77.0792 29.9074 76.6997 31.6482 75.7889 33.3822C75.299 34.3342 75.2231 34.1302 75.6647 33.0626C75.9959 32.2738 76.0304 31.9202 76.0304 29.2954C76.0304 24.0254 75.3818 22.7538 71.6351 20.5914C70.5049 19.9482 69.3444 19.3582 68.1575 18.8234C67.5726 18.5917 67.0053 18.3191 66.46 18.0074C66.5635 17.9054 70.2206 18.9526 71.6903 19.5034C73.8845 20.333 74.2433 20.435 74.5124 20.3398C74.6849 20.2718 74.7746 19.7618 74.8574 18.2658H74.8643ZM31.1665 27.2894C28.5376 23.7398 26.9023 18.293 27.2611 14.2198L27.3646 12.9618L27.9649 13.0638C29.0965 13.2678 31.0354 13.975 31.9462 14.519C34.4371 16.0014 35.5204 17.953 36.6175 22.9714C36.9418 24.4402 37.3627 26.0994 37.5559 26.6706C37.8664 27.575 39.0532 29.6898 40.0123 31.0634C40.7023 32.0562 40.2469 32.5254 38.7151 32.3894C36.376 32.1854 33.2089 30.0434 31.1665 27.2894ZM71.6627 53.721C59.353 48.8726 55.0198 44.6566 55.0198 37.5506C55.0198 36.5034 55.0543 35.6466 55.1026 35.6466C55.144 35.6466 55.6201 35.9866 56.1583 36.415C58.6561 38.3734 61.4506 39.2098 69.1925 40.3182C73.7465 40.971 76.2995 41.4946 78.6662 42.263C86.1872 44.7042 90.8309 49.6546 91.9418 56.407C92.2592 58.3654 92.0798 62.0374 91.5485 63.9754C91.1345 65.5054 89.8787 68.2594 89.5475 68.3682C89.4509 68.4022 89.3612 68.0554 89.3405 67.5794C89.2163 65.0498 87.9053 62.5814 85.7111 60.7318C83.2133 58.6306 79.8599 56.951 71.6627 53.721ZM63.0238 55.7406C62.8792 54.8795 62.6811 54.0279 62.4304 53.1906L62.113 52.2726L62.6995 52.9186C63.5068 53.8026 64.1485 54.9382 64.6867 56.4546C65.1007 57.6106 65.1421 57.9506 65.1421 59.8274C65.1421 61.6702 65.0869 62.0578 64.7005 63.0914C64.1703 64.6242 63.2816 66.0126 62.1061 67.1442C59.8567 69.3882 56.9656 70.6258 52.7911 71.1426C52.0666 71.231 49.9552 71.3806 48.0991 71.4758C43.414 71.7138 40.3297 72.2102 37.5628 73.1622C37.312 73.2708 37.043 73.3331 36.7693 73.3458C36.6589 73.237 38.5495 72.1354 40.102 71.401C42.2962 70.3606 44.4835 69.7962 49.3825 69.0006C51.7975 68.6062 54.3022 68.1234 54.937 67.933C60.9262 66.1378 64.0105 61.4934 63.0238 55.7406Z" fill="white"/>
<path d="M68.6686 65.5579C67.0333 62.1171 66.6538 58.7919 67.5508 55.6911C67.6474 55.3511 67.7992 55.0859 67.8958 55.0859C67.9855 55.0859 68.3788 55.2899 68.7514 55.5415C69.5104 56.0379 71.0146 56.8743 75.0442 59.0231C80.0674 61.7091 82.9378 63.7831 84.8836 66.1631C86.5879 68.2371 87.6436 70.6103 88.1542 73.4935C88.444 75.1255 88.2715 79.0695 87.8437 80.7151C86.4913 85.9103 83.3587 89.9903 78.8737 92.3703C78.2182 92.7171 77.6317 93.0027 77.5627 93.0027C77.5006 93.0027 77.7421 92.4111 78.094 91.6835C79.6051 88.5963 79.7776 85.5975 78.6391 82.2587C77.9353 80.2119 76.5139 77.7163 73.6435 73.4935C70.3039 68.5975 69.4897 67.2851 68.6686 65.5579ZM22.4247 84.1423C26.9994 80.3615 32.6781 77.6823 37.8601 76.8527C40.5291 76.5155 43.2365 76.6189 45.871 77.1587C49.183 77.9883 52.15 79.8515 53.6887 82.0615C55.1929 84.2307 55.8415 86.1143 56.5177 90.3167C56.7799 91.9691 57.0697 93.6351 57.1525 94.0091C57.6562 96.1851 58.6429 97.9259 59.8573 98.7963C61.7893 100.184 65.1289 100.272 68.4064 99.0207C68.7468 98.8661 69.1064 98.7563 69.4759 98.6943C69.5932 98.8099 67.9441 99.8911 66.7849 100.462C65.4096 101.183 63.8712 101.548 62.3137 101.523C59.3122 101.523 56.8213 100.027 54.7375 96.9807C53.9733 95.6909 53.2912 94.3556 52.6951 92.9823C50.5009 88.0795 49.4176 86.5903 46.8715 84.9515C44.6497 83.5235 41.7862 83.2719 39.6334 84.3055C36.8044 85.6655 36.0178 89.2015 38.0464 91.4455C38.994 92.4098 40.2338 93.0445 41.5792 93.2543C42.1135 93.3265 42.6573 93.2846 43.1738 93.1314C43.6902 92.9782 44.1672 92.7173 44.5723 92.3664C44.9774 92.0156 45.3012 91.5829 45.5217 91.0978C45.7422 90.6128 45.8543 90.0866 45.8503 89.5551C45.8503 88.0795 45.2707 87.2431 43.8148 86.5903C41.8207 85.7131 39.6886 86.7399 39.6955 88.5691C39.6955 89.3511 40.0474 89.8407 40.8478 90.2011C41.3584 90.4255 41.3722 90.4391 40.9513 90.3575C39.1297 89.9835 38.7019 87.8279 40.1647 86.3999C41.9311 84.6863 45.5743 85.4411 46.8232 87.7871C47.3476 88.7731 47.4097 90.7315 46.9543 91.9147C45.9193 94.5667 42.9385 95.9607 39.9025 95.1991C37.8325 94.6823 36.9976 94.1247 34.5067 91.6155C30.1803 87.2499 28.5036 86.3999 22.266 85.4479L21.0654 85.2643L22.4247 84.1423Z" fill="white"/>
<path fill-rule="evenodd" clip-rule="evenodd" d="M2.12611 6.01354C16.5747 23.1903 26.5315 30.2759 27.6355 31.7719C28.5463 33.0095 28.2013 34.1247 26.6418 34.9951C25.5329 35.5442 24.3258 35.8746 23.0883 35.9675C22.074 35.9675 21.7221 35.5867 21.7221 35.5867C21.1356 35.0427 20.8044 35.1379 17.7891 29.8951C15.2256 25.9631 12.6311 22.0507 10.0059 18.1583C9.78512 17.9543 9.79202 17.9543 17.3682 31.2347C18.5895 34.0023 17.6097 35.0155 17.6097 35.4099C17.6097 36.2123 17.382 36.6339 16.3746 37.7423C14.691 39.5784 13.9389 41.6455 13.3938 45.9227C12.7866 50.7167 11.0754 54.1031 6.32822 59.9035C3.55441 63.2967 3.09901 63.9156 2.39521 65.2892C1.51201 67.0095 1.27051 67.9751 1.17391 70.1443C1.07041 72.4495 1.27051 73.9319 1.98811 76.1283C2.60911 78.0595 3.27151 79.3243 4.94822 81.8675C6.39722 84.0639 7.22522 85.696 7.22522 86.3352C7.22522 86.8384 7.32182 86.8383 9.57122 86.3419C14.9256 85.1588 19.2795 83.0779 21.729 80.5144C23.247 78.93 23.5989 78.0595 23.6127 75.8904C23.6196 74.476 23.5713 74.1768 23.178 73.3607C22.5432 72.0348 21.384 70.9264 18.831 69.2128C15.4776 66.9688 14.0424 65.1668 13.656 62.6848C13.3248 60.6448 13.7043 59.2099 15.5535 55.4087C17.4717 51.4647 17.9478 49.7851 18.2721 45.8207C18.4791 43.2571 18.762 42.2439 19.5141 41.4279C20.3007 40.5847 21.0045 40.2991 22.9503 40.0407C26.1174 39.6123 28.1254 38.8167 29.7814 37.3207C30.4451 36.7808 30.9807 36.104 31.3503 35.338C31.7198 34.5719 31.9144 33.7353 31.9204 32.8871L31.9894 31.4591L31.1821 30.5479C28.2772 27.2295 0.180309 3.40234 0.000908668 3.40234C-0.0335914 3.40234 0.91861 4.57874 2.12611 6.01354ZM8.86052 72.7556C9.17708 72.2046 9.2712 71.5563 9.12412 70.9399C8.97704 70.3236 8.59957 69.7845 8.06702 69.4304C7.03202 68.7504 5.41052 69.0768 5.41052 69.9539C5.41052 70.2259 5.56232 70.4231 5.90732 70.5931C6.48692 70.8855 6.52832 71.212 6.07292 71.8852C5.61062 72.5583 5.65202 73.15 6.17642 73.558C7.02512 74.204 8.22572 73.8503 8.86052 72.7556ZM33.9835 40.7955C32.5 41.2375 31.0579 42.7811 30.6025 44.3995C30.3334 45.3855 30.4921 47.1195 30.8992 47.6499C31.5616 48.5135 32.1964 48.7379 33.9283 48.7311C37.3093 48.7107 40.2487 47.2895 40.5937 45.5079C40.8697 44.0527 39.5794 42.0399 37.7992 41.1491C36.5899 40.6653 35.263 40.5423 33.9835 40.7955ZM37.9441 43.8215C38.4616 43.0939 38.2339 42.3119 37.3438 41.7815C35.6602 40.7683 33.1003 41.6047 33.1003 43.1687C33.1003 43.9507 34.432 44.8007 35.6533 44.8007C36.4675 44.8007 37.5853 44.3247 37.9441 43.8215Z" fill="white"/>
</svg>
