<svg width="200" height="44" viewBox="0 0 200 44" fill="none" xmlns="http://www.w3.org/2000/svg">
<path d="M134.327 13.1845H119.15L123.539 0H110.055L95.4607 43.9482H123.539C130.044 43.9482 135.807 39.8638 137.817 33.8142L141.465 22.7497C142.999 18.0446 139.403 13.1845 134.327 13.1845ZM128.087 22.4395L125.073 31.591C124.068 34.5899 121.213 36.6581 117.934 36.6581H111.377L116.718 20.5264H126.659C127.664 20.5264 128.404 21.5088 128.087 22.4395ZM158.017 0L155.108 8.78966H168.592L171.501 0H158.017ZM143.422 43.9482H156.906L167.112 13.1844H153.628L143.422 43.9482ZM187.364 20.5264H196.46L198.892 13.1845H189.797L194.186 0H180.702L169.28 34.3831C167.693 39.14 171.342 44 176.418 44H191.383L193.816 36.6581H184.086C183.081 36.6581 182.341 35.6757 182.658 34.7451L187.364 20.5264Z" fill="#023F97"/>
<path d="M41.0479 15.356L55.8009 0H39.9901L27.8281 36.6581H17.6753C16.6706 36.6581 15.9303 35.6757 16.2475 34.7451L27.7751 0H14.291L2.86916 34.3831C1.28278 39.1397 4.93143 43.9482 10.0078 43.9482H38.8796L49.0854 13.1845L41.0479 15.356ZM90.9131 0H59.9259L64.4736 15.356L57.8636 13.1845L47.6581 43.9482H61.1421L66.0071 29.316H80.6016C87.1056 29.316 92.8696 25.2316 94.8789 19.1821L98.0516 9.56521C99.6381 4.86017 96.0424 0 90.9131 0ZM84.6734 9.25498L82.1351 16.9589C81.1304 19.9577 78.2749 22.0259 74.9964 22.0259H68.4394L73.3044 7.39366H83.2456C84.3031 7.34196 84.9906 8.27261 84.6734 9.25498Z" fill="#0062DF"/>
</svg>
