<svg width="206" height="32" viewBox="0 0 206 32" fill="none" xmlns="http://www.w3.org/2000/svg">
<g clip-path="url(#clip0_1963_1744)">
<path d="M49.0374 22.3009L38.3865 4.04604C36.062 0.244369 30.3373 0.21012 28.0822 4.2173L16.9106 23.1914C14.829 26.6848 17.3963 31.0345 21.5943 31.0345H44.0415C48.2396 31.0687 51.3968 26.5479 49.0374 22.3009Z" fill="#003087"/>
<path d="M33.668 23.7407L33.0089 22.6104C32.3844 21.5487 31.0313 19.2883 31.0313 19.2883L22.0108 3.8076C19.6863 0.382665 14.1352 0.0744158 11.8107 4.42409L1.29829 22.3707C-0.887452 26.1381 1.71463 31.0358 6.43306 31.07H28.7415H38.2476H43.9029C38.1435 31.1043 36.3049 28.1246 33.668 23.7407Z" fill="#1877F2"/>
<path d="M33.668 23.6722L33.0088 22.542C32.3843 21.4803 31.0313 19.2198 31.0313 19.2198L25.2026 9.08203L16.8413 23.1927C14.7596 26.6862 17.327 31.0358 21.525 31.0358H28.7067H38.213H43.9029C38.1089 31.0016 36.3048 28.0904 33.668 23.6722Z" fill="url(#paint0_linear_1963_1744)"/>
<path d="M187.701 9.02767C189.262 7.5892 192.003 6.9042 195.993 6.9042H205.326V1.66406H194.293C191.656 1.66406 189.436 1.93807 187.701 2.48605C186.001 3.03404 184.509 3.89027 183.225 5.08899C181.872 6.39047 180.797 8.00017 180.034 9.91813C179.27 11.8703 178.889 13.9938 178.889 16.22C178.889 18.3435 179.27 20.3984 180.034 22.2822C180.797 24.1659 181.872 25.8098 183.225 27.1113C184.474 28.31 185.966 29.1662 187.632 29.7142C189.332 30.2622 191.587 30.5362 194.293 30.5362H205.326V25.3646H195.993C193.877 25.3646 192.419 25.2961 191.587 25.1248C190.719 24.9536 189.922 24.6796 189.262 24.2686C187.944 23.4466 186.938 22.3849 186.279 21.0492C185.654 19.7477 185.342 18.1037 185.342 16.1858C185.342 12.8978 186.14 10.4661 187.701 9.02767Z" fill="white"/>
<path d="M106.482 30.6056H132.503V25.5367H112.831V18.3101H130.005V13.5152H112.831V6.80236H132.503V1.69922H106.482V30.6056Z" fill="white"/>
<path d="M138.99 1.69922L151.168 16.1524L138.99 30.6056H146.866L156.476 19.1664V13.1727L146.866 1.69922H138.99Z" fill="white"/>
<path d="M168.55 1.69922L158.939 13.1727V19.1664L168.55 30.6056H176.425L164.213 16.1524L176.425 1.69922H168.55Z" fill="white"/>
<path d="M80.9817 15.9469L69.2897 1.69922H63.2529V30.6056H69.6019V11.3233L79.7327 23.3106H82.1958L92.3266 11.2206V30.6056H98.6756V1.69922H92.7084L80.9817 15.9469Z" fill="white"/>
</g>
<defs>
<linearGradient id="paint0_linear_1963_1744" x1="13.8571" y1="16.7976" x2="39.6949" y2="26.4695" gradientUnits="userSpaceOnUse">
<stop stop-color="#003087" stop-opacity="0"/>
<stop offset="1" stop-color="#003087"/>
</linearGradient>
<clipPath id="clip0_1963_1744">
<rect width="205" height="31" fill="white" transform="translate(0.5 0.5)"/>
</clipPath>
</defs>
</svg>
