<svg width="200" height="48" viewBox="0 0 200 48" fill="none" xmlns="http://www.w3.org/2000/svg">
<g clip-path="url(#clip0_1309_424)">
<mask id="mask0_1309_424" style="mask-type:luminance" maskUnits="userSpaceOnUse" x="0" y="0" width="200" height="48">
<path d="M200 0H0V47.3343H200V0Z" fill="white"/>
</mask>
<g mask="url(#mask0_1309_424)">
<path d="M47.3683 0H13.7209V9.91782H19.9038V6.16924H41.2195V27.4339H33.6236V13.7448H0V47.3127H33.6145V37.4164H27.4691V41.165H6.15561V19.9049H13.7448V33.5861H47.3831V33.1908C47.3831 22.2533 47.3831 11.3161 47.3831 0.379401C47.382 0.253313 47.3683 0.126088 47.3683 0ZM27.4532 27.4407H19.9129V19.8958H27.4532V27.4407ZM61.0086 21.6599C65.2797 21.6599 69.5508 21.6713 73.8219 21.6486C74.563 21.6473 75.3016 21.5615 76.0233 21.393C76.9467 21.2268 77.8097 20.8196 78.525 20.2126C79.2403 19.6056 79.7826 18.8203 80.0968 17.9364C80.4166 16.9804 80.5368 15.969 80.4501 14.9648C80.4361 13.9766 80.1191 13.0165 79.542 12.2143C78.9648 11.4121 78.1553 10.8063 77.2229 10.479C77.1195 10.4369 77.0184 10.3904 76.8707 10.3268C77.4891 10.0345 78.029 9.59913 78.4456 9.05668C78.8622 8.51424 79.1436 7.88033 79.2664 7.20748C79.4669 6.38224 79.5173 5.52767 79.4152 4.68458C79.3616 3.8669 79.0914 3.07822 78.6322 2.3995C78.1731 1.72077 77.5416 1.17645 76.8026 0.822414C76.3843 0.615269 75.9468 0.449396 75.4963 0.327148C74.9476 0.181749 74.3796 0.105642 73.8208 0H60.7201C60.7201 0.126088 60.7337 0.253313 60.7337 0.379401C60.7337 7.33509 60.7337 14.2908 60.7337 21.2465V21.6463C60.8621 21.652 60.9359 21.6588 61.0097 21.6588M65.8477 4.27905H66.1884C67.9582 4.27905 69.7269 4.27905 71.4967 4.27905C71.772 4.27916 72.047 4.29623 72.3202 4.33017C72.8032 4.35978 73.2556 4.57674 73.581 4.93486C73.9065 5.29299 74.0793 5.76399 74.0627 6.24762C74.0825 6.58532 74.0573 6.92415 73.9877 7.25519C73.9246 7.67935 73.7126 8.06719 73.3895 8.34922C73.0665 8.63126 72.6536 8.78907 72.2248 8.79438C72.0249 8.81255 71.8227 8.81028 71.6216 8.81028H65.8477V4.27905ZM65.8386 12.978C65.9454 12.9712 66.0476 12.9598 66.1487 12.9598C68.2456 12.9598 70.3437 12.9598 72.4406 12.9598C72.7474 12.9572 73.0536 12.9846 73.355 13.0416C73.6217 13.0788 73.8783 13.1692 74.1094 13.3075C74.3405 13.4457 74.5415 13.629 74.7004 13.8464C74.8593 14.0638 74.9729 14.3109 75.0345 14.5731C75.0961 14.8353 75.1044 15.1071 75.0589 15.3726C75.0784 15.6125 75.0484 15.8539 74.971 16.0819C74.8936 16.3098 74.7703 16.5195 74.6087 16.698C74.4472 16.8764 74.2508 17.0199 74.0316 17.1196C73.8125 17.2193 73.5753 17.273 73.3346 17.2775C73.0517 17.3193 72.7663 17.3413 72.4804 17.3434C70.3516 17.3487 68.2225 17.3487 66.093 17.3434C66.0192 17.3434 65.9465 17.3377 65.834 17.332L65.8386 12.978ZM136.162 21.2521V21.6418H141.3V13.4631C142.866 13.4631 144.392 13.4778 145.917 13.4517C146.063 13.4354 146.21 13.4696 146.334 13.5485C146.458 13.6274 146.552 13.7464 146.599 13.8856C147.839 16.3847 149.098 18.8769 150.347 21.376C150.379 21.4684 150.442 21.5473 150.524 21.5999C150.607 21.6524 150.704 21.6756 150.802 21.6656C152.54 21.6531 154.278 21.6599 156.016 21.6599H156.34L151.364 12.4691C151.394 12.4428 151.427 12.4199 151.462 12.401C152.155 12.1722 152.779 11.7722 153.276 11.2381C153.774 10.704 154.128 10.0529 154.307 9.34531C154.757 7.8022 154.823 6.17276 154.5 4.59825C154.368 3.56958 153.926 2.60568 153.231 1.83536C152.537 1.06504 151.624 0.524998 150.614 0.287391C150.105 0.153351 149.576 0.0942823 149.057 0H136.147C136.147 0.126088 136.161 0.253313 136.161 0.379401C136.161 7.33584 136.161 14.2923 136.161 21.2487M141.323 4.47784C141.437 4.47784 141.551 4.46307 141.657 4.46307C143.475 4.46307 145.302 4.45058 147.122 4.47103C147.566 4.47592 148.007 4.53816 148.434 4.65618C148.708 4.7128 148.956 4.85771 149.139 5.06866C149.323 5.27961 149.432 5.54494 149.45 5.82392C149.517 6.47319 149.523 7.12726 149.469 7.77772C149.364 8.69896 148.924 9.05224 147.97 9.14084C147.749 9.16242 147.526 9.17378 147.304 9.17378C145.419 9.17378 143.533 9.17378 141.648 9.17378C141.545 9.17378 141.443 9.16356 141.323 9.15674V4.47784ZM159.612 21.3737C159.612 14.2809 159.612 7.18817 159.612 0.0954182C159.612 0.0636121 159.612 0.0318061 159.612 0.00113593H176.275V4.54373H164.721V8.53312H175.854V13.1041H164.721V17.1298H176.406V21.6395H159.631C159.624 21.5543 159.612 21.4646 159.612 21.3737ZM178.437 21.6599L186.406 10.7164L185.401 9.27715C183.309 6.28359 181.216 3.29004 179.124 0.296478C179.059 0.203332 179.01 0.098826 178.953 0H185.059C185.131 0.127224 185.194 0.258992 185.275 0.379401C189.829 7.27791 194.654 13.989 199.387 20.7648C199.585 21.0488 199.799 21.3226 200.005 21.6009V21.6645C198.118 21.6645 196.232 21.652 194.345 21.6645C194.213 21.6751 194.08 21.6467 193.963 21.5827C193.846 21.5187 193.751 21.422 193.689 21.3044C192.285 19.1995 190.866 17.1014 189.453 15.0068C189.389 14.9125 189.323 14.8205 189.239 14.7001L187.535 17.1537C186.544 18.5782 185.554 20.006 184.556 21.4248C184.518 21.482 184.469 21.531 184.411 21.5689C184.354 21.6067 184.29 21.6327 184.222 21.6452C182.325 21.6588 180.429 21.6543 178.445 21.6543M113.993 4.46535C113.962 4.41423 113.943 4.39719 113.943 4.38015C113.943 2.9201 113.946 1.46005 113.951 0H132.966V4.44717H126.097V21.6338H120.798V4.46535H113.993ZM93.0044 4.25179C93.0044 2.897 93.0044 1.54222 93.0044 0.187429C93.0096 0.124386 93.0191 0.0617676 93.0328 0L112.048 0V4.45626H105.153V21.6429H99.8699V4.46421H93.0271C93.0169 4.3722 93.0044 4.312 93.0044 4.25179ZM84.5235 0.411207C84.5235 0.273759 84.5121 0.137448 84.5053 0H89.784C89.784 0.113593 89.7976 0.227186 89.7976 0.347595C89.7976 7.31464 89.7976 14.279 89.7976 21.2408V21.6384H84.5247V21.209C84.5247 14.276 84.5247 7.34304 84.5247 0.410071M196.263 3.75425H193.323V0H200.001V6.67132H196.263V3.75425ZM138.222 40.1404C138.191 40.3712 138.074 40.5817 137.895 40.7308C137.716 40.8798 137.487 40.9565 137.255 40.9458C135.968 40.9878 134.678 40.9583 133.372 40.9583V38.4978H134.971C135.628 38.4978 136.284 38.4853 136.94 38.4978C137.146 38.4802 137.353 38.5141 137.542 38.5965C137.731 38.6789 137.897 38.8073 138.024 38.9699C138.151 39.1325 138.236 39.3243 138.27 39.5279C138.305 39.7315 138.288 39.9404 138.221 40.1359M127.082 35.6819C127.412 36.8815 127.421 38.1469 127.107 39.3509C126.996 39.8407 126.722 40.2784 126.33 40.5927C125.938 40.907 125.451 41.0795 124.949 41.0821C124.622 41.1124 124.293 41.1074 123.966 41.0673C123.398 41.0267 122.865 40.7779 122.468 40.3686C122.072 39.9592 121.841 39.4182 121.818 38.8489C121.747 38.4229 121.728 37.9878 121.672 37.4335C121.75 36.9428 121.808 36.3294 121.954 35.7387C122.044 35.3261 122.26 34.9512 122.57 34.6644C122.88 34.3777 123.271 34.1928 123.689 34.1347C124.304 34.0031 124.94 34.0206 125.547 34.1859C125.916 34.2693 126.255 34.453 126.526 34.7167C126.798 34.9805 126.992 35.3141 127.086 35.6807M133.372 36.7031V34.1677H133.826C134.735 34.1677 135.644 34.1586 136.559 34.1745C136.728 34.1597 136.897 34.1833 137.055 34.2433C137.213 34.3033 137.356 34.3982 137.472 34.521C137.588 34.6438 137.675 34.7913 137.726 34.9523C137.777 35.1134 137.791 35.284 137.767 35.4513C137.786 35.6212 137.766 35.7933 137.71 35.9547C137.653 36.1161 137.561 36.2628 137.441 36.3839C137.32 36.5051 137.174 36.5977 137.013 36.6549C136.851 36.7121 136.679 36.7324 136.509 36.7144C135.473 36.7144 134.437 36.7144 133.373 36.7144M146.646 34.4721L147.996 38.4479H145.197C145.689 37.0961 146.174 35.7648 146.645 34.4721M199.685 28.3381H60.8734V47.3343H200V28.3381H199.682M110.088 43.1052H108.27C108.232 42.8083 108.194 42.5179 108.157 42.2339C108.119 42.2339 108.091 42.2192 108.082 42.2282C107.617 42.6501 107.063 42.9613 106.462 43.1383C105.86 43.3154 105.226 43.3538 104.607 43.2506C104.195 43.2222 103.787 43.1494 103.391 43.0336C102.722 42.8744 102.11 42.5329 101.623 42.0471C101.136 41.5613 100.793 40.9501 100.632 40.2813C100.233 38.825 100.192 37.2937 100.513 35.8182C100.705 34.9113 101.189 34.0928 101.893 33.4888C102.596 32.8848 103.478 32.529 104.403 32.4763C105.52 32.3239 106.657 32.4324 107.725 32.7932C108.384 33.0263 108.957 33.4535 109.369 34.0186C109.78 34.5837 110.011 35.2602 110.031 35.959C110.031 36.0306 110.025 36.1033 110.021 36.1942H107.821C107.785 36.0476 107.759 35.9011 107.708 35.7614C107.587 35.3794 107.35 35.0443 107.031 34.8019C106.712 34.5594 106.326 34.4217 105.926 34.4074C105.442 34.3605 104.954 34.3862 104.477 34.4835C104.066 34.5594 103.69 34.7618 103.399 35.0624C103.109 35.363 102.92 35.7468 102.859 36.1601C102.622 37.239 102.607 38.3546 102.814 39.4395C102.857 39.9664 103.096 40.458 103.485 40.816C103.874 41.174 104.384 41.372 104.912 41.3706C105.405 41.4322 105.905 41.4065 106.389 41.2945C106.658 41.2612 106.917 41.1697 107.148 41.0263C107.378 40.8829 107.575 40.6911 107.724 40.4641C107.873 40.2372 107.971 39.9805 108.01 39.712C108.05 39.4434 108.031 39.1695 107.954 38.909H104.944V37.0518H110.089L110.088 43.1052ZM119.228 43.1052H111.662V32.6149H113.974V41.165H119.234L119.228 43.1052ZM129.443 39.8042C129.313 40.7401 128.852 41.5985 128.143 42.2237C127.435 42.8489 126.525 43.1995 125.581 43.212C124.685 43.3157 123.779 43.2874 122.892 43.1279C122.016 43.0093 121.206 42.598 120.593 41.9607C119.981 41.3235 119.602 40.4978 119.518 39.6179C119.419 39.0249 119.386 38.4217 119.316 37.7481C119.394 37.1427 119.43 36.4634 119.576 35.8068C119.721 35.0189 120.1 34.293 120.664 33.7242C121.228 33.1555 121.951 32.7704 122.737 32.6194C123.937 32.3285 125.19 32.332 126.388 32.6296C127.176 32.7776 127.898 33.1691 128.452 33.7491C129.006 34.3291 129.364 35.0683 129.476 35.8625C129.731 37.1643 129.721 38.5044 129.444 39.8019M140.657 40.5278C140.641 41.2118 140.358 41.8624 139.868 42.3399C139.378 42.8174 138.72 43.0836 138.036 43.0813C137.075 43.1393 136.105 43.1188 135.145 43.1234C133.926 43.129 132.707 43.1234 131.489 43.1234H131.105V32.5876H131.445C133.311 32.5876 135.177 32.5694 137.041 32.6001C137.579 32.6108 138.113 32.6992 138.626 32.8625C139.042 32.9839 139.41 33.2312 139.68 33.5705C139.95 33.9098 140.108 34.3244 140.133 34.7572C140.204 35.1276 140.199 35.5086 140.116 35.8766C140.034 36.2447 139.876 36.5917 139.654 36.8962C139.364 37.1882 139.043 37.4473 138.696 37.6686C138.714 37.6686 138.78 37.6868 138.845 37.7095C139.458 37.8456 139.992 38.2178 140.332 38.7454C140.673 39.2729 140.791 39.9134 140.662 40.5278M151.178 43.1256C150.743 43.1256 150.309 43.1165 149.875 43.1256C149.793 43.1406 149.709 43.1226 149.64 43.0755C149.572 43.0285 149.524 42.9563 149.509 42.8746C149.282 42.2044 149.025 41.5444 148.794 40.8754C148.781 40.7982 148.738 40.7294 148.674 40.6838C148.61 40.6381 148.531 40.6192 148.454 40.6311C147.204 40.6402 145.955 40.6425 144.705 40.6311C144.618 40.6193 144.529 40.6419 144.458 40.6943C144.386 40.7466 144.338 40.8246 144.323 40.9117C144.083 41.5774 143.833 42.2392 143.571 42.8973C143.549 42.9496 143.516 42.9963 143.473 43.0337C143.43 43.0711 143.38 43.0982 143.325 43.1131C142.617 43.1302 141.908 43.1234 141.136 43.1234L142.158 40.5005C143.14 37.9696 144.125 35.4388 145.096 32.9045C145.12 32.8 145.184 32.7086 145.273 32.6487C145.362 32.5889 145.47 32.565 145.576 32.5819C146.349 32.6001 147.122 32.5921 147.896 32.5819C147.967 32.5691 148.041 32.584 148.102 32.6234C148.162 32.6629 148.206 32.724 148.223 32.7943C149.457 36.1787 150.696 39.5611 151.939 42.9416C151.954 43.0007 151.965 43.0606 151.972 43.1211L151.178 43.1256ZM160.578 43.1018H153.01V32.6115H155.316V41.1605H160.573L160.578 43.1018Z" fill="#1C6FE8"/>
</g>
</g>
<defs>
<clipPath id="clip0_1309_424">
<rect width="200" height="47.3343" fill="white"/>
</clipPath>
</defs>
</svg>
