<svg width="178" height="55" viewBox="0 0 178 55" fill="none" xmlns="http://www.w3.org/2000/svg">
<path d="M69.7691 27.1286C71.1084 26.3586 72.1799 25.3996 72.961 24.2691C73.8486 22.9911 74.3183 21.4635 74.3038 19.9011C74.3038 16.8876 73.1908 14.5339 70.9978 12.9081C68.8307 11.2981 65.8496 10.4844 62.1341 10.4844H48.6994V45.3986H62.6716C66.5841 45.3986 69.7173 44.4781 71.9829 42.6599C74.2658 40.8259 75.4254 38.2586 75.4254 35.0264C75.4254 33.0576 74.8793 31.3654 73.8061 29.9951C72.8435 28.7701 71.4869 27.8076 69.7691 27.1286ZM55.9698 16.7774H61.55C63.3006 16.7774 64.6209 17.1204 65.4798 17.7976C66.3266 18.4626 66.7414 19.3411 66.7414 20.4751C66.7414 21.6126 66.3266 22.5331 65.4798 23.2034C64.6209 23.8789 63.3006 24.2219 61.55 24.2219H55.9698V16.7774ZM66.4752 37.9226C65.5075 38.7084 64.0299 39.1056 62.0857 39.1056H55.9698V30.5621H62.0874C64.0299 30.5621 65.5092 30.9471 66.4804 31.6996C67.443 32.4521 67.9096 33.4444 67.9096 34.7376C67.9096 36.0991 67.4413 37.1404 66.4752 37.9226ZM85.2499 19.2904H77.9295V45.3969H85.2482L85.2499 19.2904ZM157.54 23.2191C156.369 21.8123 154.892 20.6983 153.225 19.9641C151.521 19.1994 149.605 18.8109 147.533 18.8109C144.992 18.8109 142.701 19.3954 140.719 20.5469C138.758 21.6766 137.139 23.3259 136.035 25.3174C134.91 27.3299 134.342 29.6609 134.342 32.2491C134.342 34.8391 134.895 37.3241 135.983 39.3664C137.047 41.3842 138.669 43.0443 140.649 44.1439C142.649 45.2621 144.997 45.8291 147.631 45.8291C150.863 45.8291 153.605 45.0066 155.788 43.3809C157.888 41.8181 159.331 39.6149 160.119 36.8534H152.75C152.363 37.7931 151.817 38.5929 151.034 39.1564C150.109 39.8214 148.915 40.1574 147.484 40.1574C146.243 40.1574 145.179 39.8529 144.322 39.2509C143.463 38.6471 142.806 37.7581 142.374 36.6014C142.098 35.8413 141.913 35.0505 141.823 34.2459H160.247L160.283 34.0149C160.611 31.9096 160.528 29.9146 160.034 28.0859C159.561 26.2991 158.711 24.6378 157.54 23.2174V23.2191ZM141.94 29.4141C142.052 28.8733 142.205 28.342 142.398 27.8251C142.848 26.6526 143.496 25.7514 144.327 25.1494C145.155 24.5474 146.185 24.2446 147.387 24.2446C148.896 24.2446 150.135 24.7399 151.068 25.7146C151.955 26.6421 152.456 27.9091 152.563 29.4124L141.94 29.4141ZM85.402 10.4844H77.7774V16.7774H85.402V10.4844ZM125.481 22.2531C124.656 21.2331 123.625 20.4037 122.457 19.8206C121.092 19.1504 119.493 18.8109 117.706 18.8109C115.52 18.8109 113.559 19.3586 111.883 20.4331C110.206 21.5094 108.876 23.0284 107.934 24.9464C106.992 26.8609 106.515 29.1079 106.515 31.6279C106.515 34.1479 107.016 36.2636 108.008 38.1904C109.002 40.1241 110.379 41.6641 112.102 42.7701C113.827 43.8779 115.795 44.4414 117.952 44.4414C119.58 44.4414 121.068 44.0844 122.371 43.3791C123.375 42.8433 124.253 42.0941 124.946 41.1829V44.0249C124.946 45.7871 124.489 47.1399 123.591 48.0411C122.689 48.9424 121.317 49.3974 119.512 49.3974C117.957 49.3974 116.735 49.0404 115.88 48.3351C115.18 47.7576 114.568 47.0016 114.426 45.3986H107.369C107.434 47.6421 108.084 49.1524 109.003 50.4771C110.032 51.9594 111.48 53.1196 113.312 53.9211C115.123 54.7121 117.228 55.1146 119.561 55.1146C123.48 55.1146 126.599 54.1171 128.832 52.1519C131.079 50.1761 132.216 47.4094 132.216 43.9304V19.2904H125.483L125.481 22.2531ZM124.194 35.0964C123.77 36.0215 123.093 36.8047 122.245 37.3539C121.415 37.8789 120.413 38.1484 119.269 38.1484C117.61 38.1484 116.322 37.5761 115.328 36.4019C114.337 35.2311 113.834 33.6246 113.834 31.6261C113.834 29.6276 114.335 28.0211 115.327 26.8504C116.31 25.6919 117.636 25.1039 119.267 25.1039C120.9 25.1039 122.341 25.6989 123.356 26.8766C124.379 28.0649 124.897 29.6784 124.897 31.6716C124.897 32.9649 124.66 34.1146 124.194 35.0946V35.0964ZM178.003 25.5361V19.2921H172.721V10.4844H165.45V19.2921H160.938V25.5361H165.45V35.7561C165.45 41.4384 166.556 45.6139 173.445 45.4844L177.77 45.3969V39.5466H175.624C172.562 39.5466 172.733 37.7389 172.733 34.3806L172.721 25.5379L178.003 25.5361ZM104.737 25.5361V19.2921H99.4536V10.4844H92.1833V19.2921H87.6693V25.5361H92.1798V35.7561C92.1798 41.4384 93.2858 45.6139 100.176 45.4844L104.5 45.3969V39.5466H102.359C99.2964 39.5466 99.4657 37.7389 99.4657 34.3806L99.4536 25.5379L104.737 25.5361ZM18.2493 16.7774H29.2283L40.4596 28.0771C41.1906 28.8121 41.1941 30.0091 40.4665 30.7476L26.0623 45.4074H14.755L18.175 42.0404L30.7283 29.4089L18.334 16.7756" fill="#00E0FF"/>
<path d="M22.7598 29.38H11.7843L0.551244 18.0802C0.377416 17.9055 0.239329 17.6977 0.144887 17.4689C0.0504455 17.24 0.00150296 16.9945 0.000860893 16.7465C0.000218821 16.4984 0.0478898 16.2527 0.141145 16.0233C0.234401 15.7939 0.37141 15.5854 0.544331 15.4097L14.9485 0.75H26.2576L22.8393 4.117L10.2842 16.7485L22.6803 29.38" fill="#00E0FF"/>
</svg>
