<svg width="200" height="48" viewBox="0 0 200 48" fill="none" xmlns="http://www.w3.org/2000/svg">
<g clip-path="url(#clip0_1309_407)">
<path d="M157.353 24.5655C157.353 23.3704 157.353 22.2639 157.308 21.2457C157.264 20.2277 157.176 19.2539 157.043 18.4129C156.91 17.5277 156.644 16.7308 156.246 15.9341C155.892 15.1373 155.316 14.4291 154.652 13.7209C153.679 12.7471 152.616 12.0389 151.421 11.5077C150.226 11.0208 148.854 10.7109 147.305 10.7109C145.755 10.7109 144.383 10.9765 143.188 11.5077C141.993 11.9946 140.886 12.7471 139.913 13.7209C139.204 14.4291 138.717 15.1373 138.363 15.9341C138.009 16.7308 137.699 17.5277 137.567 18.4129C137.434 19.2982 137.345 20.2277 137.301 21.2457C137.257 22.2639 137.257 23.3704 137.257 24.5655C137.257 25.7606 137.257 26.8231 137.301 27.8854C137.345 28.9034 137.434 29.8772 137.567 30.7182C137.699 31.6036 137.965 32.4003 138.363 33.197C138.717 33.9937 139.293 34.7019 139.913 35.4101C140.886 36.3841 141.949 37.0923 143.188 37.6234C144.383 38.1103 145.755 38.4201 147.305 38.4201C148.854 38.4201 150.182 38.1545 151.421 37.6234C152.616 37.1365 153.723 36.3841 154.652 35.4101C155.361 34.7019 155.847 33.9937 156.246 33.197C156.6 32.4003 156.91 31.6036 157.043 30.7182C157.176 29.8329 157.308 28.9034 157.308 27.8854C157.353 26.7788 157.353 25.7606 157.353 24.5655ZM152.085 24.5655C152.085 25.8491 152.085 26.9559 152.041 27.8411C151.997 28.7263 151.952 29.3903 151.82 29.9657C151.731 30.4968 151.598 30.9837 151.421 31.2937C151.244 31.6478 151.067 32.0019 150.757 32.2675C150.403 32.7101 149.872 33.0642 149.341 33.3298C148.765 33.5954 148.101 33.6839 147.349 33.7282C146.597 33.7282 145.977 33.5954 145.357 33.3298C144.782 33.0642 144.295 32.7544 143.896 32.2675C143.631 32.0019 143.454 31.6921 143.232 31.2937C143.055 30.9395 142.923 30.4968 142.834 29.9657C142.746 29.4345 142.657 28.7263 142.657 27.8411C142.613 26.9559 142.613 25.8934 142.613 24.5655C142.613 23.2819 142.613 22.1754 142.657 21.29C142.701 20.4047 142.746 19.7408 142.834 19.1654C142.923 18.59 143.055 18.1473 143.232 17.8375C143.409 17.4834 143.587 17.1291 143.896 16.8636C144.25 16.4209 144.782 16.0669 145.357 15.8013C145.932 15.5357 146.597 15.4472 147.349 15.4029C148.101 15.4029 148.721 15.5357 149.341 15.8013C149.872 16.0669 150.403 16.3767 150.757 16.8636C151.023 17.1291 151.2 17.4391 151.421 17.8375C151.598 18.1916 151.731 18.6342 151.82 19.1654C151.908 19.6965 151.997 20.4047 152.041 21.29C152.041 22.1754 152.085 23.2819 152.085 24.5655Z" fill="#01BC8D"/>
<path d="M199.626 11.4192C199.626 11.1536 199.405 10.9766 199.184 10.9766H194.844C194.579 10.9766 194.402 11.1979 194.402 11.4192V27.6198L183.734 11.1094C183.646 11.0208 183.602 10.9766 183.469 10.9766H179.397C179.175 10.9766 178.954 11.1979 178.954 11.4192C178.954 20.1834 178.954 28.9477 178.954 37.6234C178.954 37.889 179.175 38.0661 179.397 38.0661H183.734C184 38.0661 184.177 37.8447 184.177 37.6234V21.3785L194.844 37.9333C194.933 38.0218 194.977 38.0661 195.11 38.0661H199.184C199.449 38.0661 199.626 37.8447 199.626 37.6234V11.4192Z" fill="#01BC8D"/>
<path d="M170.279 11.4192C170.279 11.1536 170.057 10.9766 169.836 10.9766H165.498C165.233 10.9766 165.056 11.1979 165.056 11.4192V37.6234C165.056 37.889 165.277 38.0661 165.498 38.0661H169.836C170.102 38.0661 170.279 37.8447 170.279 37.6234V11.4192Z" fill="#01BC8D"/>
<path d="M117.958 24.5655C117.958 23.2819 117.958 22.1754 118.003 21.29C118.047 20.4047 118.091 19.7408 118.18 19.1654C118.578 16.8193 120.393 15.4472 122.695 15.4472C124.2 15.4472 125.528 15.9783 126.413 17.2619C126.767 17.7932 127.077 18.4572 127.254 19.2096C127.254 19.2982 127.298 19.3424 127.387 19.3424H132.521C132.61 19.3424 132.61 19.2982 132.61 19.2096C132.079 16.0669 130.352 13.1455 127.342 11.729C125.97 11.0651 124.377 10.7109 122.606 10.7109C119.729 10.7109 117.25 11.729 115.258 13.6766C114.107 14.8275 113.399 16.1997 113.045 17.749C112.735 19.2539 112.603 21.5113 112.603 24.477C112.603 27.4427 112.735 29.7001 113.045 31.205C113.355 32.7544 114.152 34.1265 115.258 35.2773C117.25 37.2693 119.685 38.2431 122.606 38.2431C124.332 38.2431 125.926 37.9332 127.342 37.225C130.308 35.8086 132.079 32.9757 132.61 29.7444C132.61 29.6559 132.61 29.6116 132.521 29.6116H127.387C127.298 29.6116 127.254 29.6559 127.254 29.7444C127.077 30.4968 126.811 31.1165 126.413 31.6921C125.528 32.9314 124.2 33.4626 122.695 33.5068C120.393 33.5068 118.622 32.1347 118.18 29.7886C118.091 29.2575 118.003 28.5493 118.003 27.6641C117.958 26.9559 117.958 25.8491 117.958 24.5655Z" fill="#01BC8D"/>
<path d="M63.602 11.4192C63.602 11.1536 63.3807 10.9766 63.1594 10.9766H58.8215C58.556 10.9766 58.3789 11.1979 58.3789 11.4192V37.6234C58.3789 37.889 58.6002 38.0661 58.8215 38.0661H63.1594C63.425 38.0661 63.602 37.8447 63.602 37.6234V29.9215L67.1432 25.7164L74.3582 37.9775C74.4025 38.0661 74.491 38.1103 74.6238 38.1103H79.9355C80.1568 38.1103 80.201 37.9775 80.1125 37.7562L70.6843 21.7769L79.3601 11.3749C79.5371 11.1536 79.4486 10.9766 79.183 10.9766H73.34C73.2515 10.9766 73.2073 10.9766 73.163 11.0651L63.602 22.441V11.4192Z" fill="#01BC8D"/>
<path d="M95.4717 33.6384C92.9929 33.6384 90.7798 31.3366 90.7798 28.6365V11.4622C90.7798 11.1966 90.5584 11.0195 90.337 11.0195H85.9993C85.7337 11.0195 85.5566 11.2408 85.5566 11.4622V28.5922C85.5566 34.6122 90.0714 38.4189 95.5602 38.4189C101.049 38.4189 105.564 34.6122 105.564 28.5922V11.4622C105.564 11.1966 105.343 11.0195 105.121 11.0195H100.783C100.518 11.0195 100.341 11.2408 100.341 11.4622V28.6365C100.119 31.3366 97.9062 33.6384 95.4717 33.6384Z" fill="#01BC8D"/>
<path d="M14.2935 24.5641L27.8825 38.1532L36.4696 29.5659C37.9746 28.061 40.4533 28.061 41.9584 29.5659C43.4633 31.0709 43.4633 33.5497 41.9584 35.0546L30.6268 46.3863C29.1219 47.8912 26.643 47.8912 25.1381 46.3863L8.84902 30.0528V39.7909C8.84902 41.9156 7.12274 43.6861 4.95381 43.6861C2.78488 43.6861 1.05859 41.9599 1.05859 39.7909V9.42586C1.05859 7.25693 2.78488 5.53063 4.95381 5.53063C7.12274 5.53063 8.84902 7.25693 8.84902 9.42586V19.0755L25.1824 2.74201C26.6873 1.23704 29.1661 1.23704 30.671 2.74201L42.0027 14.0736C43.5076 15.5785 43.5076 18.0573 42.0027 19.5623C40.4976 21.0673 38.0189 21.0673 36.514 19.5623L27.9268 10.9751L14.2935 24.5641ZM27.9268 20.6689C25.7578 20.6689 24.0315 22.3951 24.0315 24.5641C24.0315 26.733 25.7578 28.4594 27.9268 28.4594C30.0956 28.4594 31.8219 26.733 31.8219 24.5641C31.7776 22.3951 30.0514 20.6689 27.9268 20.6689Z" fill="#01BC8D"/>
</g>
<defs>
<clipPath id="clip0_1309_407">
<rect width="200" height="47.541" fill="white"/>
</clipPath>
</defs>
</svg>
