<svg width="219" height="51" viewBox="0 0 219 51" fill="none" xmlns="http://www.w3.org/2000/svg">
<g clip-path="url(#clip0_1181_5769)">
<path d="M50.125 25.5C50.125 11.6929 38.9321 0.5 25.125 0.5C11.3179 0.5 0.125 11.6929 0.125 25.5C0.125 39.3071 11.3179 50.5 25.125 50.5C38.9321 50.5 50.125 39.3071 50.125 25.5Z" fill="#1A5AFF"/>
<path fill-rule="evenodd" clip-rule="evenodd" d="M12.625 14.25H20.9584C20.9584 18.8524 17.2274 22.5833 12.625 22.5833V14.25ZM20.9584 22.5833C20.9584 17.9809 24.6892 14.25 29.2916 14.25H37.625V22.5833H29.2916V30.9166V39.25H20.9584V30.9166V22.5833Z" fill="white"/>
<path d="M74.8308 36.4375V18H67.625V14.5625H86.0743V18H78.8685V36.4375H74.8308Z" fill="#F6F6F6"/>
<path d="M88.3375 36.4375V19.75H92.0336V24.3438L91.5987 23C92.0957 21.875 92.8722 21.0208 93.9282 20.4375C95.0049 19.8542 96.3405 19.5625 97.9349 19.5625V23.2812C97.7692 23.2396 97.6139 23.2188 97.469 23.2188C97.324 23.1979 97.1791 23.1875 97.0341 23.1875C95.564 23.1875 94.3941 23.625 93.5244 24.5C92.6548 25.3542 92.2199 26.6354 92.2199 28.3438V36.4375H88.3375Z" fill="#F6F6F6"/>
<path d="M108.399 36.6562C106.991 36.6562 105.749 36.3958 104.672 35.875C103.596 35.3333 102.757 34.5208 102.157 33.4375C101.556 32.3333 101.256 30.9479 101.256 29.2812V19.75H105.138V28.75C105.138 30.25 105.47 31.375 106.132 32.125C106.815 32.8542 107.778 33.2188 109.021 33.2188C109.932 33.2188 110.719 33.0312 111.381 32.6562C112.064 32.2812 112.592 31.7188 112.965 30.9688C113.359 30.2188 113.555 29.2917 113.555 28.1875V19.75H117.438V36.4375H113.742V31.9375L114.394 33.3125C113.835 34.3958 113.017 35.2292 111.94 35.8125C110.863 36.375 109.683 36.6562 108.399 36.6562Z" fill="#F6F6F6"/>
<path d="M130.317 36.6562C128.474 36.6562 126.859 36.2917 125.472 35.5625C124.105 34.8125 123.039 33.7917 122.273 32.5C121.527 31.2083 121.154 29.7396 121.154 28.0938C121.154 26.4271 121.517 24.9583 122.242 23.6875C122.987 22.3958 124.002 21.3854 125.285 20.6563C126.59 19.9271 128.07 19.5625 129.727 19.5625C131.342 19.5625 132.781 19.9167 134.044 20.625C135.307 21.3333 136.301 22.3333 137.026 23.625C137.75 24.9167 138.113 26.4375 138.113 28.1875C138.113 28.3542 138.103 28.5417 138.082 28.75C138.082 28.9583 138.071 29.1562 138.051 29.3438H124.229V26.75H136.001L134.479 27.5625C134.5 26.6042 134.303 25.7604 133.889 25.0312C133.475 24.3021 132.905 23.7292 132.181 23.3125C131.476 22.8958 130.659 22.6875 129.727 22.6875C128.774 22.6875 127.936 22.8958 127.211 23.3125C126.507 23.7292 125.948 24.3125 125.534 25.0625C125.14 25.7917 124.944 26.6562 124.944 27.6562V28.2813C124.944 29.2813 125.171 30.1667 125.627 30.9375C126.083 31.7083 126.724 32.3021 127.553 32.7188C128.381 33.1354 129.333 33.3438 130.41 33.3438C131.342 33.3438 132.181 33.1979 132.926 32.9063C133.671 32.6146 134.334 32.1562 134.914 31.5312L136.995 33.9375C136.249 34.8125 135.307 35.4896 134.168 35.9688C133.05 36.4271 131.766 36.6562 130.317 36.6562Z" fill="#F6F6F6"/>
<path d="M151.564 36.75C148.582 36.75 146.242 35.9063 144.544 34.2188C142.867 32.5313 142.029 30.0938 142.029 26.9062V14.5625H146.066V26.75C146.066 29 146.542 30.6354 147.495 31.6562C148.468 32.6771 149.835 33.1875 151.595 33.1875C153.355 33.1875 154.711 32.6771 155.664 31.6562C156.616 30.6354 157.092 29 157.092 26.75V14.5625H161.068V26.9062C161.068 30.0938 160.219 32.5313 158.521 34.2188C156.844 35.9063 154.525 36.75 151.564 36.75Z" fill="#F6F6F6"/>
<path d="M173.463 36.75C171.765 36.75 170.139 36.5104 168.586 36.0313C167.033 35.5313 165.801 34.8958 164.89 34.125L166.288 30.9688C167.158 31.6562 168.234 32.2292 169.518 32.6875C170.802 33.1458 172.117 33.375 173.463 33.375C174.601 33.375 175.523 33.25 176.227 33C176.931 32.75 177.449 32.4167 177.78 32C178.111 31.5625 178.277 31.0729 178.277 30.5312C178.277 29.8646 178.039 29.3333 177.562 28.9375C177.086 28.5208 176.465 28.1979 175.699 27.9688C174.953 27.7188 174.115 27.4896 173.183 27.2813C172.272 27.0729 171.351 26.8333 170.419 26.5625C169.508 26.2708 168.669 25.9062 167.903 25.4688C167.158 25.0104 166.547 24.4062 166.07 23.6562C165.594 22.9062 165.356 21.9479 165.356 20.7812C165.356 19.5937 165.667 18.5104 166.288 17.5313C166.93 16.5312 167.893 15.7396 169.176 15.1562C170.481 14.5521 172.127 14.25 174.115 14.25C175.419 14.25 176.713 14.4167 177.997 14.75C179.281 15.0833 180.399 15.5625 181.352 16.1875L180.078 19.3437C179.105 18.7604 178.101 18.3333 177.065 18.0625C176.03 17.7708 175.036 17.625 174.084 17.625C172.966 17.625 172.055 17.7604 171.351 18.0312C170.667 18.3021 170.16 18.6563 169.829 19.0938C169.518 19.5312 169.363 20.0312 169.363 20.5938C169.363 21.2604 169.591 21.8021 170.046 22.2188C170.522 22.6146 171.133 22.9271 171.879 23.1563C172.645 23.3854 173.494 23.6146 174.425 23.8438C175.357 24.0521 176.279 24.2917 177.19 24.5625C178.121 24.8333 178.96 25.1875 179.706 25.625C180.472 26.0625 181.082 26.6562 181.538 27.4063C182.014 28.1562 182.252 29.1042 182.252 30.25C182.252 31.4167 181.931 32.5 181.29 33.5C180.668 34.4792 179.706 35.2708 178.401 35.875C177.097 36.4583 175.45 36.75 173.463 36.75Z" fill="#F6F6F6"/>
<path d="M186.256 36.4375V14.5625H195.76C198.121 14.5625 200.191 15.0208 201.972 15.9375C203.753 16.8542 205.14 18.125 206.134 19.75C207.128 21.375 207.625 23.2917 207.625 25.5C207.625 27.6875 207.128 29.6042 206.134 31.25C205.14 32.875 203.753 34.1458 201.972 35.0625C200.191 35.9792 198.121 36.4375 195.76 36.4375H186.256ZM190.294 33H195.574C197.21 33 198.618 32.6875 199.798 32.0625C200.999 31.4375 201.92 30.5625 202.562 29.4375C203.225 28.3125 203.556 27 203.556 25.5C203.556 23.9792 203.225 22.6667 202.562 21.5625C201.92 20.4375 200.999 19.5625 199.798 18.9375C198.618 18.3125 197.21 18 195.574 18H190.294V33Z" fill="#F6F6F6"/>
</g>
<defs>
<clipPath id="clip0_1181_5769">
<rect width="218.75" height="50" fill="white" transform="translate(0.125 0.5)"/>
</clipPath>
</defs>
</svg>
