<svg width="130" height="32" viewBox="0 0 130 32" fill="none" xmlns="http://www.w3.org/2000/svg">
<g clip-path="url(#clip0_1694_1489)">
<path d="M45.0746 22.2816V10.2539H47.5026V14.9878H52.2616V10.2539H54.6905V22.2816H52.2616V17.0228H47.5026V22.2816H45.0746Z" fill="white"/>
<path d="M74.1055 22.2816V17.2201L69.6991 10.2539H72.5461L75.3769 15.0129L78.1503 10.2539H80.948L76.5254 17.2363V22.2816H74.1055Z" fill="white"/>
<path d="M98.9674 22.2816L94.6678 10.2539H97.3012L100.346 19.1564L103.291 10.2539H105.867L101.56 22.2816H98.9674Z" fill="white"/>
<path d="M120.851 22.2816V10.2539H129.769V12.2889H123.279V14.9555H129.318V16.9815H123.279V20.2556H130V22.2816H120.851Z" fill="white"/>
<mask id="mask0_1694_1489" style="mask-type:luminance" maskUnits="userSpaceOnUse" x="-1" y="0" width="30" height="32">
<path d="M28.918 0H-0.00012207V31.81H28.918V0Z" fill="white"/>
</mask>
<g mask="url(#mask0_1694_1489)">
<mask id="mask1_1694_1489" style="mask-type:luminance" maskUnits="userSpaceOnUse" x="-1" y="0" width="30" height="32">
<path d="M28.9176 0H-0.00012207V31.81H28.9176V0Z" fill="white"/>
</mask>
<g mask="url(#mask1_1694_1489)">
<path d="M9.34277 17.6759H1.80414C1.32394 17.6759 0.863402 17.4895 0.523846 17.1576C0.184291 16.8257 -0.00646973 16.3756 -0.00646973 15.9063C-0.00646973 15.437 0.184291 14.9869 0.523846 14.655C0.863402 14.3232 1.32394 14.1367 1.80414 14.1367H9.34277C8.93363 15.2826 8.93363 16.5301 9.34277 17.6759Z" fill="white"/>
<path d="M14.4553 12.3711C15.1703 12.3702 15.8694 12.5767 16.4643 12.9643C17.0592 13.3519 17.523 13.9032 17.7972 14.5486C18.0714 15.1939 18.1436 15.9042 18.0046 16.5897C17.8657 17.2751 17.5218 17.9048 17.0165 18.3992C16.5113 18.8936 15.8673 19.2304 15.1662 19.367C14.465 19.5037 13.7382 19.434 13.0776 19.1667C12.4169 18.8995 11.8523 18.4468 11.455 17.8659C11.0577 17.2849 10.8456 16.6019 10.8456 15.9031C10.8455 14.9671 11.2256 14.0692 11.9025 13.4069C12.5793 12.7446 13.4975 12.3721 14.4553 12.3711Z" fill="white"/>
<path d="M17.5833 1.76953H11.3275C11.6435 1.23176 12.0991 0.784981 12.6482 0.474291C13.1974 0.163602 13.8207 0 14.4552 0C15.0897 0 15.713 0.163602 16.2621 0.474291C16.8113 0.784981 17.2673 1.23176 17.5833 1.76953Z" fill="white"/>
<path d="M11.391 30.0391H17.6967C17.3753 30.5776 16.9152 31.0243 16.3622 31.3347C15.8091 31.6452 15.1825 31.8086 14.5447 31.8086C13.9069 31.8086 13.2803 31.6452 12.7272 31.3347C12.1742 31.0243 11.7141 30.5776 11.3927 30.0391" fill="white"/>
<path d="M27.105 21.2073C27.105 21.6755 26.9151 22.1247 26.5769 22.4563C26.2386 22.788 25.7797 22.9751 25.3006 22.9766H21.6823C21.4466 22.9817 21.2223 23.0767 21.0574 23.2414C20.8925 23.4061 20.8002 23.6274 20.8002 23.8578C20.8002 24.0882 20.8925 24.3095 21.0574 24.4742C21.2223 24.6389 21.4466 24.7339 21.6823 24.7389C22.1616 24.7389 22.6212 24.925 22.9601 25.2562C23.299 25.5874 23.4893 26.0366 23.4893 26.505C23.4893 26.9733 23.299 27.4226 22.9601 27.7537C22.6212 28.0849 22.1616 28.271 21.6823 28.271H7.22731C6.74807 28.271 6.28846 28.0849 5.94958 27.7537C5.61071 27.4226 5.42033 26.9733 5.42033 26.505C5.42033 26.0366 5.61071 25.5874 5.94958 25.2562C6.28846 24.925 6.74807 24.7389 7.22731 24.7389H16.2593C16.3793 24.7415 16.4987 24.7206 16.6103 24.6774C16.722 24.6343 16.8237 24.5698 16.9096 24.4877C16.9954 24.4057 17.0636 24.3077 17.1101 24.1995C17.1567 24.0913 17.1807 23.9751 17.1807 23.8578C17.1807 23.7404 17.1567 23.6243 17.1101 23.5161C17.0636 23.4079 16.9954 23.3099 16.9096 23.2278C16.8237 23.1458 16.722 23.0813 16.6103 23.0381C16.4987 22.995 16.3793 22.9741 16.2593 22.9766H3.60908C3.13369 22.9695 2.68024 22.7799 2.34664 22.4489C2.01304 22.1178 1.82605 21.6717 1.82605 21.2071C1.82605 20.7424 2.01304 20.2964 2.34664 19.9653C2.68024 19.6342 3.13369 19.4446 3.60908 19.4375H10.412C10.9204 19.994 11.5434 20.4393 12.2401 20.7442C12.9369 21.0491 13.6917 21.2067 14.4551 21.2067C15.2185 21.2067 15.9732 21.0491 16.67 20.7442C17.3667 20.4393 17.9897 19.994 18.4981 19.4375H25.301C25.5384 19.4377 25.7735 19.4837 25.9927 19.5728C26.2119 19.6619 26.411 19.7923 26.5785 19.9567C26.7461 20.1211 26.8789 20.3162 26.9692 20.5308C27.0595 20.7453 27.1057 20.9752 27.105 21.2073Z" fill="white"/>
<path d="M1.80408 10.6028C1.80454 10.1352 1.99495 9.68688 2.33347 9.35643C2.67198 9.02597 3.13091 8.8404 3.60936 8.84051H7.2276C7.34647 8.84051 7.46418 8.81763 7.574 8.77317C7.68383 8.72871 7.78361 8.66355 7.86767 8.58139C7.95172 8.49924 8.0184 8.40172 8.06389 8.29438C8.10938 8.18705 8.1328 8.072 8.1328 7.95583C8.1328 7.83965 8.10938 7.72461 8.06389 7.61727C8.0184 7.50994 7.95172 7.41241 7.86767 7.33026C7.78361 7.24811 7.68383 7.18294 7.574 7.13848C7.46418 7.09402 7.34647 7.07114 7.2276 7.07114C6.74835 7.07114 6.28874 6.88507 5.94987 6.55388C5.61099 6.22268 5.42061 5.77348 5.42061 5.3051C5.42061 4.83672 5.61099 4.38752 5.94987 4.05632C6.28874 3.72513 6.74835 3.53906 7.2276 3.53906H21.6826C22.1619 3.53906 22.6215 3.72513 22.9604 4.05632C23.2992 4.38752 23.4896 4.83672 23.4896 5.3051C23.4896 5.77348 23.2992 6.22268 22.9604 6.55388C22.6215 6.88507 22.1619 7.07114 21.6826 7.07114H12.6498C12.531 7.07114 12.4133 7.09402 12.3034 7.13848C12.1936 7.18294 12.0938 7.24811 12.0098 7.33026C11.9257 7.41241 11.859 7.50994 11.8136 7.61727C11.7681 7.72461 11.7446 7.83965 11.7446 7.95583C11.7446 8.072 11.7681 8.18705 11.8136 8.29438C11.859 8.40172 11.9257 8.49924 12.0098 8.58139C12.0938 8.66355 12.1936 8.72871 12.3034 8.77317C12.4133 8.81763 12.531 8.84051 12.6498 8.84051H25.2996C25.7788 8.84051 26.2384 9.02658 26.5773 9.35777C26.9162 9.68897 27.1066 10.1382 27.1066 10.6066C27.1066 11.0749 26.9162 11.5241 26.5773 11.8553C26.2384 12.1865 25.7788 12.3726 25.2996 12.3726H18.4972C17.9887 11.8162 17.3658 11.3711 16.6692 11.0664C15.9726 10.7616 15.2179 10.604 14.4547 10.604C13.6915 10.604 12.9368 10.7616 12.2402 11.0664C11.5436 11.3711 10.9207 11.8162 10.4122 12.3726H3.60936C3.3719 12.3724 3.13681 12.3265 2.91753 12.2375C2.69824 12.1484 2.49907 12.018 2.3314 11.8537C2.16373 11.6893 2.03086 11.4943 1.94037 11.2798C1.84989 11.0652 1.80358 10.8349 1.80408 10.6028Z" fill="white"/>
<path d="M28.9176 15.9061C28.917 16.3756 28.7258 16.8257 28.386 17.1575C28.0461 17.4893 27.5854 17.6758 27.1051 17.6759H19.5673C19.9838 16.5313 19.9838 15.2813 19.5673 14.1367H27.1051C27.5853 14.1369 28.0459 14.3234 28.3857 14.6551C28.7255 14.9868 28.9168 15.4367 28.9176 15.9061Z" fill="white"/>
</g>
</g>
</g>
<defs>
<clipPath id="clip0_1694_1489">
<rect width="130" height="32" fill="white"/>
</clipPath>
</defs>
</svg>
