<svg width="219" height="51" viewBox="0 0 219 51" fill="none" xmlns="http://www.w3.org/2000/svg">
<g clip-path="url(#clip0_1472_2145)">
<g clip-path="url(#clip1_1472_2145)">
<path d="M25 0C38.8086 0 50 11.1914 50 25C50 38.8086 38.8086 50 25 50C11.1914 50 0 38.8086 0 25C0 11.1914 11.1914 0 25 0Z" fill="#0052FF"/>
<path d="M25.0049 33.7891C20.1514 33.7891 16.2158 29.8584 16.2158 25C16.2158 20.1416 20.1514 16.2109 25.0049 16.2109C29.3555 16.2109 32.9688 19.3848 33.6621 23.5352H42.5146C41.7676 14.5117 34.2139 7.42188 25 7.42188C15.293 7.42188 7.42188 15.293 7.42188 25C7.42188 34.707 15.293 42.5781 25 42.5781C34.2139 42.5781 41.7676 35.4883 42.5146 26.4648H33.6572C32.959 30.6152 29.3555 33.7891 25.0049 33.7891Z" fill="white"/>
</g>
<path d="M89.2922 15.0947C83.4798 15.0947 78.9382 20.6767 78.9382 28.1494C78.9382 35.6221 83.365 41.1563 89.2922 41.1563C95.2194 41.1563 99.7232 35.5266 99.7232 28.1016C99.7232 20.7245 95.2964 15.0947 89.2922 15.0947ZM89.3315 35.771C86.0215 35.771 83.596 32.5188 83.596 28.1512C83.596 23.7341 85.9823 20.4838 89.2922 20.4838C92.6414 20.4838 95.0655 23.7837 95.0655 28.1512C95.0655 32.5188 92.6414 35.771 89.3315 35.771ZM100.993 20.7741H103.88V40.6731H108.498V15.5798H100.993V20.7741ZM67.3148 20.4819C69.7403 20.4819 71.6647 22.3745 72.3952 25.1893H77.284C76.398 19.1719 72.4722 15.0947 67.354 15.0947C61.5416 15.0947 57 20.6767 57 28.1512C57 35.6258 61.4269 41.1582 67.354 41.1582C72.3575 41.1582 76.3602 37.081 77.2462 31.0139H72.3952C71.7024 33.8288 69.778 35.771 67.3526 35.771C64.0034 35.771 61.6563 32.5188 61.6563 28.1512C61.6578 23.7341 63.9671 20.4819 67.3148 20.4819ZM188.748 25.724L185.361 25.0938C183.745 24.8035 182.59 24.1237 182.59 22.5215C182.59 20.7741 184.092 19.9013 186.131 19.9013C188.364 19.9013 189.788 21.114 190.096 23.1039H194.561C194.06 18.0566 190.981 15.0965 186.247 15.0965C181.359 15.0965 178.126 18.2514 178.126 22.7162C178.126 26.9863 180.243 29.4632 184.515 30.2385L187.901 30.8688C189.557 31.159 190.481 31.9859 190.481 33.5385C190.481 35.5284 188.865 36.3534 186.632 36.3534C183.899 36.3534 182.359 34.9459 182.128 32.8109H177.587C178.011 37.7131 181.051 41.1582 186.593 41.1582C191.636 41.1582 194.983 38.2459 194.983 33.2463C194.983 28.7815 192.559 26.4516 188.748 25.724ZM106.189 5.24254C104.496 5.24254 103.225 6.79514 103.225 8.9302C103.225 11.0653 104.494 12.6179 106.189 12.6179C107.882 12.6179 109.153 11.0653 109.153 8.9302C109.153 6.79514 107.882 5.24254 106.189 5.24254ZM173.969 24.1714C173.969 18.7364 171.352 15.0965 165.809 15.0965C160.575 15.0965 157.65 18.4461 157.072 23.5908H161.653C161.883 21.6009 163.115 19.9509 165.733 19.9509C168.081 19.9509 169.236 21.261 169.236 22.8632C169.236 24.9505 167.118 25.4833 164.501 25.8233C160.96 26.3083 156.572 27.8609 156.572 33.6855C156.572 38.2 159.229 41.1104 163.463 41.1104C166.772 41.1104 168.851 39.3631 169.891 36.5959C170.045 39.0709 171.507 40.6731 173.548 40.6731H176.242V35.4806H173.97V24.1714H173.969ZM169.427 30.4811C169.427 33.8306 167.118 36.3056 164.308 36.3056C162.575 36.3056 161.113 35.3832 161.113 33.4429C161.113 30.968 163.461 30.2881 165.616 29.9979C167.695 29.7553 168.849 29.1728 169.427 28.0557V30.4811ZM144.91 15.0947C142.33 15.0947 140.175 16.4544 138.636 18.7346V5H134.017V40.6731H138.558V37.3732C140.098 39.7507 142.293 41.1582 144.91 41.1582C150.452 41.1582 154.648 35.6258 154.648 28.1512C154.648 20.6767 150.375 15.0947 144.91 15.0947ZM144.217 35.771C140.907 35.771 138.482 32.5188 138.482 28.1512C138.482 23.7837 140.945 20.4838 144.255 20.4838C147.604 20.4838 149.951 23.736 149.951 28.1512C149.951 32.5188 147.527 35.771 144.217 35.771ZM122.97 15.0947C119.968 15.0947 118.004 16.6473 116.85 18.8319V15.5798H112.269V40.6713H116.887V27.0341C116.887 23.1994 118.812 20.4819 121.66 20.4819C124.316 20.4819 125.97 22.8595 125.97 26.3065V40.6731H130.589V25.871C130.591 19.5595 128.013 15.0947 122.97 15.0947ZM217 27.3263C217 20.1438 212.843 15.0965 207.262 15.0965C201.335 15.0965 196.985 20.7263 196.985 28.1512C196.985 35.9657 201.642 41.1582 207.339 41.1582C212.151 41.1582 215.922 37.5661 216.884 32.471H212.072C211.379 34.7034 209.686 35.9657 207.415 35.9657C204.45 35.9657 202.218 33.6359 201.718 29.5587H216.999V27.3263H217ZM201.988 25.3841C202.72 21.8894 204.798 20.1916 207.185 20.1916C209.802 20.1916 211.804 22.0841 212.265 25.3841H201.988Z" fill="white"/>
</g>
<defs>
<clipPath id="clip0_1472_2145">
<rect width="218.75" height="50" fill="white" transform="translate(0.125 0.5)"/>
</clipPath>
<clipPath id="clip1_1472_2145">
<rect width="50" height="50" fill="white"/>
</clipPath>
</defs>
</svg>
