<svg width="152" height="51" viewBox="0 0 152 51" fill="none" xmlns="http://www.w3.org/2000/svg">
<g clip-path="url(#clip0_1181_5775)">
<path fill-rule="evenodd" clip-rule="evenodd" d="M27.0516 50.5625H25.2959C11.6219 50.5625 0.536987 39.3696 0.536987 25.5625C0.536987 11.7554 11.6219 0.5625 25.2959 0.5625C38.9698 0.5625 50.0547 11.7554 50.0547 25.5625C50.0547 26.7988 49.9657 28.0148 49.7936 29.2044H46.328C46.5273 28.0215 46.6313 26.8049 46.6313 25.5625C46.6313 13.6645 37.0791 4.01929 25.2959 4.01929C13.5126 4.01929 3.96044 13.6645 3.96044 25.5625C3.96044 37.4605 13.5126 47.1057 25.2959 47.1057H37.9853C34.7449 49.056 31.0272 50.2819 27.0516 50.5625ZM42.7285 43.402H25.2959C15.5384 43.402 7.62841 35.415 7.62841 25.5625C7.62841 15.7101 15.5384 7.723 25.2959 7.723C35.0533 7.723 42.9633 15.7101 42.9633 25.5625C42.9633 26.8095 42.8363 28.0279 42.5945 29.2044H39.0796C39.3798 28.0426 39.5398 26.8224 39.5398 25.5625C39.5398 17.6191 33.1626 11.1797 25.2959 11.1797C17.4291 11.1797 11.0519 17.6191 11.0519 25.5625C11.0519 33.5059 17.4291 39.9452 25.2959 39.9452H45.6243C44.7627 41.1845 43.7928 42.3415 42.7285 43.402ZM25.2959 36.2415H47.7563C48.2749 35.1315 48.7151 33.9768 49.0697 32.7847H25.2959C21.3456 32.7847 18.1433 29.5512 18.1433 25.5625C18.1433 21.5738 21.3456 18.3403 25.2959 18.3403C29.2461 18.3403 32.4484 21.5738 32.4484 25.5625C32.4484 26.8929 32.0936 28.1359 31.4741 29.2044H35.2404C35.649 28.0672 35.8718 26.8404 35.8718 25.5625C35.8718 19.6646 31.1368 14.8835 25.2959 14.8835C19.4549 14.8835 14.7198 19.6646 14.7198 25.5625C14.7198 31.4604 19.4549 36.2415 25.2959 36.2415ZM72.3728 39.9384C64.2268 39.9384 59.2783 34.0578 59.2783 25.5634C59.2783 16.8001 64.4933 11.1884 72.3728 11.1884C80.4807 11.1884 85.5052 16.9922 85.5052 25.525C85.5052 34.3653 80.2523 39.9384 72.3728 39.9384ZM72.3728 14.9936C67.0436 14.9936 63.732 19.1831 63.732 25.525C63.732 32.0207 67.1198 36.0564 72.3728 36.0564C77.7781 36.0564 81.0516 31.8669 81.0516 25.5634C81.0516 19.1062 77.6258 14.9936 72.3728 14.9936ZM92.6401 39.5541H88.6432V19.3368H92.1452L92.6781 23.1035H92.9446C94.2007 20.4515 96.6369 18.9525 99.644 18.9525C104.135 18.9525 106.572 22.2195 106.572 27.2162V39.5541H102.537V27.639C102.537 24.1029 100.938 22.4502 98.1215 22.4502C94.8098 22.4502 92.6401 25.1022 92.6401 28.9458V39.5541ZM128.88 39.5541V11.2653H124.845V23.2572H124.616C123.589 20.7589 121.229 18.9525 117.803 18.9525C112.74 18.9525 109.314 23.0266 109.314 29.5992C109.314 35.9411 112.626 39.9384 117.765 39.9384C120.886 39.9384 123.55 38.4394 124.616 35.9795H124.845L125.302 39.5541H128.88ZM124.845 30.6369C124.845 33.9809 122.485 36.4792 118.983 36.4792C115.633 36.4792 113.425 34.1346 113.425 29.5992C113.425 25.256 115.405 22.4502 119.059 22.4502C122.37 22.4502 124.845 24.7179 124.845 28.4077V30.6369ZM141.661 39.9384C135.8 39.9384 131.917 35.672 131.917 29.4839C131.917 23.2572 135.8 18.9525 141.661 18.9525C147.524 18.9525 151.368 23.2572 151.368 29.4839C151.368 35.672 147.524 39.9384 141.661 39.9384ZM141.661 22.4502C138.197 22.4502 136.028 25.1407 136.028 29.4455C136.028 33.6734 138.084 36.4023 141.661 36.4023C145.088 36.4023 147.257 33.7887 147.257 29.407C147.257 25.256 145.24 22.4502 141.661 22.4502Z" fill="#F8F8F8"/>
</g>
<defs>
<clipPath id="clip0_1181_5775">
<rect width="150.926" height="50" fill="white" transform="translate(0.536987 0.5)"/>
</clipPath>
</defs>
</svg>
