<svg width="149" height="49" viewBox="0 0 149 49" fill="none" xmlns="http://www.w3.org/2000/svg">
<path d="M65.9576 16.7161C65.6611 16.5043 65.3411 16.3396 64.9929 16.2219C65.4588 16.029 65.8117 15.7514 66.0517 15.389C66.2917 15.0266 66.4141 14.6172 66.4141 14.1608C66.4141 13.3278 66.1317 12.6925 65.5717 12.2596C65.0117 11.8219 64.1788 11.6055 63.0729 11.6055H58.3105V21.7702H63.3035C63.7317 21.7702 64.1553 21.7231 64.5835 21.6337C65.0117 21.5396 65.4023 21.3843 65.76 21.1631C66.1176 20.9419 66.4047 20.6361 66.6258 20.2502C66.8423 19.8643 66.9505 19.3749 66.9505 18.7819C66.9505 18.2972 66.8564 17.8878 66.6729 17.549C66.4941 17.2055 66.2541 16.9325 65.9576 16.7161ZM59.8823 13.1161H62.96C63.4823 13.1161 63.9247 13.2196 64.2823 13.4219C64.64 13.6243 64.8188 13.9631 64.8188 14.4384C64.8188 14.8666 64.6494 15.1914 64.3105 15.4266C63.9717 15.6572 63.5811 15.7796 63.1341 15.789H59.8823V13.1161ZM64.7764 19.8878C64.3905 20.1325 63.8917 20.2596 63.28 20.2596H59.8823V17.2996H63.2094C63.5388 17.2996 63.8682 17.3419 64.1976 17.4314C64.527 17.5208 64.8047 17.6666 65.0258 17.8831C65.247 18.0949 65.36 18.3866 65.36 18.7537C65.3553 19.2619 65.1623 19.6431 64.7764 19.8878Z" fill="white"/>
<path d="M73.0681 11.6055L68.7246 21.7702H70.334L71.3928 19.2996H76.3293L77.374 21.7702H79.0728L74.7623 11.6055H73.0681ZM72.0376 17.7937L73.0823 15.3561C73.2187 15.0361 73.3505 14.7019 73.4728 14.3537C73.5999 14.0055 73.7317 13.6478 73.8634 13.2808C73.9905 13.6384 74.1128 13.9866 74.2399 14.3208C74.367 14.6549 74.4893 14.9796 74.6164 15.2996L75.6893 17.7984H72.0376V17.7937Z" fill="white"/>
<path d="M89.6328 13.1161V14.9466V19.3749L83.0728 11.6055H81.6046V13.1161V21.7702H83.1717V17.5443V14.2172L89.7081 21.7702H91.2046V20.749V13.1161V11.6055H89.6328V13.1161Z" fill="white"/>
<path d="M104.132 14.7349C103.915 14.1184 103.586 13.5772 103.153 13.1066C102.715 12.6361 102.179 12.269 101.544 12.0055C100.904 11.7372 100.165 11.6055 99.3224 11.6055H94.88V21.7702H99.3224C100.447 21.7702 101.388 21.5396 102.155 21.0784C102.922 20.6172 103.496 20.0055 103.882 19.2337C104.268 18.4619 104.461 17.6149 104.461 16.6831C104.461 16.0008 104.353 15.3514 104.132 14.7349ZM102.466 18.4808C102.221 19.0172 101.831 19.4502 101.304 19.7749C100.776 20.0996 100.089 20.2596 99.2471 20.2596H96.4424V13.1161H99.2471C100.08 13.1161 100.762 13.2808 101.294 13.6102C101.826 13.9396 102.216 14.3772 102.461 14.9184C102.706 15.4596 102.833 16.0525 102.833 16.6878C102.833 17.3466 102.711 17.9443 102.466 18.4808Z" fill="white"/>
<path d="M63.247 26.9961C63.807 26.9961 64.3247 27.1326 64.8 27.4102C65.2753 27.6879 65.6517 28.0596 65.9388 28.5302C66.2259 29.0008 66.367 29.5279 66.367 30.1208C66.367 30.7232 66.2211 31.2643 65.9247 31.749C65.6282 32.2337 65.2376 32.6196 64.7482 32.902C64.2588 33.189 63.7176 33.3302 63.1294 33.3302H59.9623V37.1655H58.3953V27.0008H63.247V26.9961ZM63.0588 31.8196C63.36 31.8196 63.6376 31.7443 63.8917 31.589C64.1459 31.4337 64.3529 31.2267 64.5082 30.9726C64.6635 30.7137 64.7388 30.4314 64.7388 30.1208C64.7388 29.8196 64.6588 29.5514 64.5082 29.3067C64.3529 29.0667 64.1459 28.869 63.8917 28.7279C63.6329 28.582 63.3553 28.5114 63.0588 28.5114H59.967V31.8196H63.0588Z" fill="white"/>
<path d="M77.52 30.1914C77.52 30.8502 77.3223 31.4479 76.9223 31.9843C76.527 32.5208 76.0188 32.9114 75.3976 33.1514L78.0094 37.1749L76.08 37.1608L73.6565 33.3726H70.8847V37.1608H69.3176V26.9961H74.2823C74.8329 26.9961 75.3553 27.1279 75.8494 27.3961C76.3435 27.6643 76.7435 28.0361 77.0541 28.5208C77.3647 29.0055 77.52 29.5655 77.52 30.1914ZM73.9482 28.5067H70.8847V31.862H74.1976C74.5365 31.862 74.8329 31.782 75.0917 31.6314C75.3459 31.4761 75.5482 31.269 75.6847 31.0149C75.8259 30.7561 75.8965 30.4784 75.8965 30.182C75.8965 29.8526 75.807 29.5608 75.6329 29.3114C75.4588 29.062 75.2235 28.8643 74.927 28.7232C74.6353 28.5773 74.3059 28.5067 73.9482 28.5067Z" fill="white"/>
<path d="M91.0823 32.0798C91.0823 32.8139 90.9505 33.501 90.6823 34.1363C90.414 34.7716 90.0376 35.3269 89.5482 35.7974C89.0588 36.2727 88.4846 36.6398 87.8211 36.908C87.1576 37.1763 86.4282 37.308 85.6376 37.308C84.8423 37.308 84.1129 37.1763 83.4446 36.908C82.7764 36.6398 82.2023 36.2727 81.7176 35.7974C81.2329 35.3222 80.8564 34.7669 80.5929 34.1363C80.3246 33.501 80.1929 32.8186 80.1929 32.0798C80.1929 31.3457 80.3246 30.6586 80.5929 30.0233C80.8611 29.388 81.2329 28.8327 81.7176 28.3622C82.2023 27.8869 82.7764 27.5198 83.4446 27.2516C84.1129 26.9833 84.8423 26.8516 85.6376 26.8516C86.4329 26.8516 87.1576 26.9833 87.8211 27.2516C88.4846 27.5198 89.0588 27.8869 89.5482 28.3622C90.0376 28.8374 90.414 29.3927 90.6823 30.0233C90.9505 30.6633 91.0823 31.3457 91.0823 32.0798ZM89.487 32.0798C89.487 31.3739 89.3223 30.7433 88.9929 30.1833C88.6635 29.628 88.207 29.1857 87.6282 28.861C87.0493 28.5363 86.3858 28.3763 85.6376 28.3763C84.8705 28.3763 84.2023 28.5363 83.6282 28.861C83.054 29.1857 82.6023 29.628 82.2776 30.1833C81.9529 30.7386 81.7929 31.3739 81.7929 32.0798C81.7929 32.7857 81.9529 33.4163 82.2776 33.9763C82.6023 34.5316 83.054 34.9739 83.6282 35.2986C84.2023 35.6233 84.8752 35.7833 85.6376 35.7833C86.3811 35.7833 87.0446 35.6233 87.6282 35.2986C88.207 34.9739 88.6635 34.5316 88.9929 33.9716C89.3223 33.4069 89.487 32.781 89.487 32.0798Z" fill="white"/>
<path d="M95.8023 37.1608V28.5067H92.5505V26.9961H100.711V28.5067H97.3694V37.1608H95.8023Z" fill="white"/>
<path d="M113.068 32.0798C113.068 32.8139 112.936 33.501 112.668 34.1363C112.4 34.7716 112.024 35.3269 111.534 35.7974C111.045 36.2727 110.471 36.6398 109.807 36.908C109.144 37.1763 108.414 37.308 107.624 37.308C106.828 37.308 106.099 37.1763 105.431 36.908C104.762 36.6398 104.188 36.2727 103.704 35.7974C103.219 35.3222 102.842 34.7669 102.579 34.1363C102.311 33.501 102.179 32.8186 102.179 32.0798C102.179 31.3457 102.311 30.6586 102.579 30.0233C102.847 29.388 103.219 28.8327 103.704 28.3622C104.188 27.8869 104.762 27.5198 105.431 27.2516C106.099 26.9833 106.828 26.8516 107.624 26.8516C108.419 26.8516 109.144 26.9833 109.807 27.2516C110.471 27.5198 111.045 27.8869 111.534 28.3622C112.024 28.8374 112.4 29.3927 112.668 30.0233C112.932 30.6633 113.068 31.3457 113.068 32.0798ZM111.468 32.0798C111.468 31.3739 111.304 30.7433 110.974 30.1833C110.645 29.628 110.188 29.1857 109.609 28.861C109.031 28.5363 108.367 28.3763 107.619 28.3763C106.852 28.3763 106.184 28.5363 105.609 28.861C105.035 29.1857 104.584 29.628 104.259 30.1833C103.934 30.7386 103.774 31.3739 103.774 32.0798C103.774 32.7857 103.934 33.4163 104.259 33.9763C104.584 34.5316 105.035 34.9739 105.609 35.2986C106.184 35.6233 106.856 35.7833 107.619 35.7833C108.362 35.7833 109.026 35.6233 109.609 35.2986C110.188 34.9739 110.645 34.5316 110.974 33.9716C111.304 33.4069 111.468 32.781 111.468 32.0798Z" fill="white"/>
<path d="M124.508 35.8098C124.278 36.0404 123.958 36.271 123.558 36.5015C123.158 36.7274 122.692 36.9204 122.169 37.0757C121.647 37.231 121.092 37.3062 120.499 37.3062C119.765 37.3062 119.078 37.1839 118.438 36.9345C117.798 36.6898 117.238 36.3368 116.762 35.8804C116.282 35.4239 115.911 34.878 115.642 34.2333C115.374 33.5886 115.242 32.8733 115.242 32.078C115.242 31.3345 115.383 30.6474 115.661 30.0168C115.943 29.3862 116.329 28.8404 116.828 28.3745C117.327 27.9086 117.896 27.551 118.536 27.2921C119.176 27.038 119.854 26.9062 120.569 26.9062C121.172 26.9062 121.732 26.991 122.259 27.1604C122.786 27.3298 123.256 27.5462 123.666 27.8051C124.075 28.0686 124.405 28.3415 124.645 28.6333L123.642 29.8239C123.214 29.4286 122.743 29.0992 122.226 28.8451C121.708 28.591 121.134 28.4592 120.503 28.4592C119.882 28.4592 119.294 28.6051 118.734 28.8968C118.174 29.1886 117.718 29.6027 117.36 30.1439C117.007 30.6851 116.828 31.3298 116.828 32.0733C116.828 32.8874 117.012 33.5651 117.374 34.1063C117.736 34.6474 118.212 35.0568 118.795 35.3345C119.379 35.6121 120.014 35.7486 120.692 35.7486C121.379 35.7486 121.976 35.6168 122.48 35.3486C122.983 35.0804 123.398 34.8027 123.727 34.5157L124.508 35.8098Z" fill="white"/>
<path d="M137.605 32.0798C137.605 32.8139 137.473 33.501 137.205 34.1363C136.936 34.7716 136.56 35.3269 136.071 35.7974C135.581 36.2727 135.007 36.6398 134.343 36.908C133.68 37.1763 132.951 37.308 132.16 37.308C131.365 37.308 130.635 37.1763 129.967 36.908C129.299 36.6398 128.725 36.2727 128.24 35.7974C127.755 35.3222 127.379 34.7669 127.115 34.1363C126.847 33.501 126.715 32.8186 126.715 32.0798C126.715 31.3457 126.847 30.6586 127.115 30.0233C127.383 29.388 127.755 28.8327 128.24 28.3622C128.725 27.8869 129.299 27.5198 129.967 27.2516C130.635 26.9833 131.365 26.8516 132.16 26.8516C132.955 26.8516 133.68 26.9833 134.343 27.2516C135.007 27.5198 135.581 27.8869 136.071 28.3622C136.56 28.8374 136.936 29.3927 137.205 30.0233C137.473 30.6633 137.605 31.3457 137.605 32.0798ZM136.009 32.0798C136.009 31.3739 135.845 30.7433 135.515 30.1833C135.186 29.628 134.729 29.1857 134.151 28.861C133.572 28.5363 132.908 28.3763 132.16 28.3763C131.393 28.3763 130.725 28.5363 130.151 28.861C129.576 29.1857 129.125 29.628 128.8 30.1833C128.475 30.7386 128.315 31.3739 128.315 32.0798C128.315 32.7857 128.475 33.4163 128.8 33.9763C129.125 34.5316 129.576 34.9739 130.151 35.2986C130.725 35.6233 131.398 35.7833 132.16 35.7833C132.903 35.7833 133.567 35.6233 134.151 35.2986C134.729 34.9739 135.186 34.5316 135.515 33.9716C135.845 33.4069 136.009 32.781 136.009 32.0798Z" fill="white"/>
<path d="M147.685 35.658V37.1686H140.541V27.0039H142.108V35.658H147.685Z" fill="white"/>
<path d="M23.8024 48.1791C10.7012 48.1791 0.0800171 37.5579 0.0800171 24.4567C0.0800171 11.3556 10.7012 0.734375 23.8024 0.734375C36.9035 0.734375 47.5247 11.3556 47.5247 24.4567C47.52 37.5579 36.8988 48.1791 23.8024 48.1791Z" fill="white"/>
<path d="M31.7035 20.1527C31.7035 18.4727 30.88 16.9857 29.6141 16.0727L33.0306 12.6562L30.9882 12.6657L28.273 15.381C27.7694 15.2115 27.233 15.1221 26.6729 15.1221H17.3271V28.3598L28.5788 17.108C29.5906 17.7433 30.2682 18.8727 30.2682 20.1574C30.2682 22.1386 28.6541 23.7527 26.6729 23.7527H26.3765L13.8541 36.2751H15.8871L18.3435 33.8186H26.6729C29.4494 33.8186 31.7035 31.5598 31.7035 28.788C31.7035 26.9574 30.72 25.3574 29.2565 24.4774C30.72 23.588 31.7035 21.9833 31.7035 20.1527ZM18.7624 24.8868V16.5574H26.6729C26.8094 16.5574 26.9412 16.5668 27.0729 16.581L18.7624 24.8868ZM30.2682 28.7786C30.2682 30.7598 28.6541 32.3739 26.6729 32.3739H19.7788L26.9412 25.2115C28.7953 25.3527 30.2682 26.8915 30.2682 28.7786Z" fill="#1400A5"/>
</svg>
