<svg width="157" height="49" viewBox="0 0 157 49" fill="none" xmlns="http://www.w3.org/2000/svg">
<mask id="mask0_2070_7430" style="mask-type:luminance" maskUnits="userSpaceOnUse" x="0" y="0" width="157" height="49">
<path d="M0 0H157V49H0V0Z" fill="white"/>
</mask>
<g mask="url(#mask0_2070_7430)">
<path d="M61.5378 24.6145C62.7191 23.9407 63.6642 23.1016 64.3532 22.1124C65.1361 20.9942 65.5503 19.6575 65.5375 18.2904C65.5375 15.6536 64.5559 13.5941 62.6216 12.1716C60.7101 10.7628 58.0808 10.0508 54.8036 10.0508H42.9539V40.6007H55.2776C58.7286 40.6007 61.4921 39.7953 63.4904 38.2043C65.504 36.5996 66.5268 34.3533 66.5268 31.525C66.5268 29.8024 66.0451 28.3217 65.0985 27.1227C64.2495 26.0508 63.053 25.2086 61.5378 24.6145ZM49.3665 15.5572H54.2884C55.8325 15.5572 56.997 15.8573 57.7546 16.4499C58.5015 17.0317 58.8673 17.8004 58.8673 18.7927C58.8673 19.788 58.5015 20.5934 57.7546 21.1799C56.997 21.771 55.8325 22.0711 54.2884 22.0711H49.3665V15.5572ZM58.6326 34.0593C57.779 34.7468 56.4757 35.0944 54.7609 35.0944H49.3665V27.6188H54.7624C56.4757 27.6188 57.7805 27.9557 58.6371 28.6141C59.4862 29.2726 59.8977 30.1408 59.8977 31.2724C59.8977 32.4637 59.4846 33.3748 58.6326 34.0593ZM75.1923 17.756H68.7354V40.5992H75.1907L75.1923 17.756ZM138.954 21.1937C137.921 19.9627 136.618 18.988 135.148 18.3456C133.645 17.6764 131.955 17.3365 130.127 17.3365C127.886 17.3365 125.865 17.8479 124.117 18.8555C122.388 19.844 120.96 21.2871 119.986 23.0297C118.994 24.7906 118.492 26.8302 118.492 29.0949C118.492 31.3612 118.98 33.5356 119.94 35.3225C120.879 37.0881 122.309 38.5407 124.056 39.5028C125.819 40.4813 127.891 40.9774 130.214 40.9774C133.064 40.9774 135.483 40.2578 137.408 38.8352C139.26 37.4678 140.533 35.54 141.228 33.1237H134.729C134.387 33.9459 133.906 34.6457 133.215 35.1388C132.4 35.7207 131.346 36.0147 130.084 36.0147C128.99 36.0147 128.051 35.7482 127.295 35.2215C126.537 34.6932 125.958 33.9153 125.577 32.9032C125.334 32.2381 125.17 31.5462 125.091 30.8421H141.341L141.373 30.64C141.663 28.7979 141.59 27.0522 141.154 25.4521C140.737 23.8886 139.986 22.435 138.954 21.1922V21.1937ZM125.194 26.6143C125.293 26.141 125.428 25.6762 125.598 25.2239C125.995 24.198 126.566 23.4094 127.299 22.8827C128.03 22.3559 128.938 22.091 129.999 22.091C131.33 22.091 132.423 22.5243 133.246 23.3772C134.028 24.1888 134.47 25.2974 134.564 26.6128L125.194 26.6143ZM75.3264 10.0508H68.6013V15.5572H75.3264V10.0508ZM110.677 20.3484C109.95 19.4559 109.04 18.7301 108.01 18.22C106.806 17.6335 105.396 17.3365 103.82 17.3365C101.891 17.3365 100.161 17.8157 98.6828 18.7559C97.2043 19.6977 96.0306 21.0268 95.1999 22.705C94.3691 24.3802 93.9484 26.3463 93.9484 28.5513C93.9484 30.7563 94.3905 32.6076 95.2654 34.2935C96.1418 35.9856 97.3567 37.3331 98.8764 38.3008C100.398 39.2701 102.134 39.7632 104.036 39.7632C105.472 39.7632 106.784 39.4508 107.934 38.8337C108.82 38.3648 109.594 37.7093 110.205 36.912V39.3987C110.205 40.9407 109.802 42.1243 109.01 42.9129C108.214 43.7015 107.004 44.0997 105.412 44.0997C104.041 44.0997 102.963 43.7873 102.208 43.1702C101.591 42.6649 101.052 42.0034 100.927 40.6007H94.7014C94.7593 42.5638 95.3325 43.8853 96.1434 45.0444C97.0503 46.3414 98.3277 47.3566 99.9434 48.0579C101.541 48.7501 103.397 49.1023 105.455 49.1023C108.912 49.1023 111.664 48.2294 113.633 46.5098C115.614 44.7811 116.617 42.3602 116.617 39.316V17.756H110.679L110.677 20.3484ZM109.542 31.5863C109.168 32.3958 108.571 33.0811 107.822 33.5616C107.091 34.021 106.207 34.2568 105.198 34.2568C103.734 34.2568 102.599 33.7561 101.722 32.7286C100.847 31.7042 100.404 30.2985 100.404 28.5498C100.404 26.8011 100.846 25.3954 101.721 24.371C102.588 23.3573 103.757 22.8428 105.196 22.8428C106.636 22.8428 107.908 23.3635 108.802 24.394C109.705 25.4337 110.162 26.8455 110.162 28.5896C110.162 29.7212 109.953 30.7272 109.542 31.5847V31.5863ZM157.003 23.2211V17.7576H152.343V10.0508H145.931V17.7576H141.951V23.2211H145.931V32.1636C145.931 37.1355 146.906 40.7891 152.982 40.6758L156.797 40.5992V35.4803H154.904C152.203 35.4803 152.354 33.8985 152.354 30.96L152.343 23.2226L157.003 23.2211ZM92.38 23.2211V17.7576H87.7203V10.0508H81.3076V17.7576H77.3262V23.2211H81.3046V32.1636C81.3046 37.1355 82.2801 40.7891 88.3574 40.6758L92.1711 40.5992V35.4803H90.2825C87.5815 35.4803 87.7309 33.8985 87.7309 30.96L87.7203 23.2226L92.38 23.2211ZM16.0962 15.5572H25.7799L35.6862 25.4444C36.3309 26.0876 36.334 27.1349 35.6923 27.7811L22.9875 40.6084H13.0142L16.0307 37.6623L27.103 26.6097L16.1709 15.5556" fill="#00E0FF"/>
<path d="M20.0746 26.5825H10.394L0.486188 16.6952C0.332868 16.5423 0.211072 16.3605 0.127772 16.1602C0.0444728 15.96 0.00130439 15.7452 0.000738067 15.5281C0.000171745 15.3111 0.0422186 15.0961 0.124472 14.8954C0.206726 14.6947 0.327571 14.5123 0.480091 14.3585L13.1849 1.53125H23.1597L20.1447 4.47738L9.07089 15.5299L20.0045 26.5825" fill="#00E0FF"/>
</g>
</svg>
