<svg width="219" height="51" viewBox="0 0 219 51" fill="none" xmlns="http://www.w3.org/2000/svg">
<g clip-path="url(#clip0_1694_1474)">
<g clip-path="url(#clip1_1694_1474)">
<path d="M25 0C38.8086 0 50 11.1914 50 25C50 38.8086 38.8086 50 25 50C11.1914 50 0 38.8086 0 25C0 11.1914 11.1914 0 25 0Z" fill="#0052FF"/>
<path d="M25.0049 33.7891C20.1514 33.7891 16.2158 29.8584 16.2158 25C16.2158 20.1416 20.1514 16.2109 25.0049 16.2109C29.3555 16.2109 32.9688 19.3848 33.6621 23.5352H42.5146C41.7676 14.5117 34.2139 7.42188 25 7.42188C15.293 7.42188 7.42188 15.293 7.42188 25C7.42188 34.707 15.293 42.5781 25 42.5781C34.2139 42.5781 41.7676 35.4883 42.5146 26.4648H33.6572C32.959 30.6152 29.3555 33.7891 25.0049 33.7891Z" fill="white"/>
</g>
<g clip-path="url(#clip2_1694_1474)">
<mask id="mask0_1694_1474" style="mask-type:luminance" maskUnits="userSpaceOnUse" x="57" y="8" width="162" height="28">
<path d="M218.673 8H57V36H218.673V8Z" fill="white"/>
</mask>
<g mask="url(#mask0_1694_1474)">
<path d="M89.6299 15.8171C83.7567 15.8171 79.1676 20.1397 79.1676 25.9263C79.1676 31.713 83.6407 35.9986 89.6299 35.9986C95.619 35.9986 100.17 31.639 100.17 25.8893C100.17 20.1766 95.6968 15.8171 89.6299 15.8171ZM89.6695 31.8283C86.3249 31.8283 83.874 29.3098 83.874 25.9277C83.874 22.5072 86.2853 19.9903 89.6299 19.9903C93.014 19.9903 95.4634 22.5456 95.4634 25.9277C95.4634 29.3098 93.014 31.8283 89.6695 31.8283ZM101.453 20.215H104.37V35.6244H109.037V16.1927H101.453V20.215ZM67.4226 19.9888C69.8735 19.9888 71.818 21.4543 72.5562 23.6341H77.496C76.6008 18.9743 72.634 15.8171 67.4623 15.8171C61.5891 15.8171 57 20.1397 57 25.9277C57 31.7158 61.4731 36 67.4623 36C72.518 36 76.5627 32.8427 77.4578 28.1445H72.5562C71.8562 30.3243 69.9116 31.8283 67.4608 31.8283C64.0766 31.8283 61.705 29.3098 61.705 25.9277C61.7065 22.5072 64.0399 19.9888 67.4226 19.9888ZM190.126 24.0482L186.703 23.5601C185.07 23.3353 183.903 22.8089 183.903 21.5682C183.903 20.215 185.421 19.5392 187.481 19.5392C189.737 19.5392 191.177 20.4783 191.488 22.0192H195.999C195.493 18.1107 192.381 15.8185 187.599 15.8185C182.659 15.8185 179.392 18.2615 179.392 21.719C179.392 25.0257 181.532 26.9437 185.848 27.5441L189.27 28.0321C190.943 28.2569 191.877 28.8972 191.877 30.0995C191.877 31.6404 190.243 32.2793 187.988 32.2793C185.225 32.2793 183.67 31.1894 183.437 29.5361H178.847C179.276 33.3322 182.348 36 187.948 36C193.043 36 196.426 33.7448 196.426 29.8732C196.426 26.4158 193.977 24.6116 190.126 24.0482ZM106.703 8.18781C104.992 8.18781 103.708 9.39011 103.708 11.0434C103.708 12.6968 104.991 13.8991 106.703 13.8991C108.414 13.8991 109.699 12.6968 109.699 11.0434C109.699 9.39011 108.414 8.18781 106.703 8.18781ZM175.192 22.8459C175.192 18.6371 172.548 15.8185 166.947 15.8185C161.658 15.8185 158.702 18.4123 158.118 22.3962H162.747C162.98 20.8553 164.225 19.5776 166.869 19.5776C169.243 19.5776 170.409 20.5921 170.409 21.8328C170.409 23.4492 168.269 23.8618 165.625 24.125C162.047 24.5006 157.613 25.7029 157.613 30.2133C157.613 33.7092 160.297 35.963 164.576 35.963C167.92 35.963 170.02 34.6099 171.071 32.4671C171.227 34.3837 172.705 35.6244 174.766 35.6244H177.489V31.6034H175.193V22.8459H175.192ZM170.603 27.7319C170.603 30.3257 168.269 32.2423 165.429 32.2423C163.679 32.2423 162.201 31.528 162.201 30.0255C162.201 28.1089 164.574 27.5825 166.752 27.3577C168.852 27.1699 170.019 26.7188 170.603 25.8538V27.7319ZM145.829 15.8171C143.222 15.8171 141.045 16.87 139.489 18.6357V8H134.822V35.6244H139.411V33.069C140.967 34.9101 143.184 36 145.829 36C151.429 36 155.669 31.7158 155.669 25.9277C155.669 20.1397 151.351 15.8171 145.829 15.8171ZM145.129 31.8283C141.784 31.8283 139.333 29.3098 139.333 25.9277C139.333 22.5456 141.823 19.9903 145.167 19.9903C148.551 19.9903 150.923 22.5087 150.923 25.9277C150.923 29.3098 148.473 31.8283 145.129 31.8283ZM123.66 15.8171C120.626 15.8171 118.642 17.0194 117.476 18.7111V16.1927H112.847V35.623H117.514V25.0627C117.514 22.0932 119.458 19.9888 122.336 19.9888C125.02 19.9888 126.692 21.83 126.692 24.4992V35.6244H131.358V24.162C131.36 19.2746 128.755 15.8171 123.66 15.8171ZM218.673 25.2889C218.673 19.727 214.473 15.8185 208.833 15.8185C202.844 15.8185 198.449 20.1781 198.449 25.9277C198.449 31.9791 203.155 36 208.911 36C213.773 36 217.584 33.2184 218.556 29.2728H213.693C212.993 31.0016 211.282 31.9791 208.987 31.9791C205.992 31.9791 203.736 30.1749 203.231 27.0176H218.671V25.2889H218.673ZM203.504 23.785C204.244 21.0787 206.344 19.764 208.755 19.764C211.4 19.764 213.422 21.2295 213.889 23.785H203.504Z" fill="#0052FF"/>
</g>
</g>
<path d="M165.138 50.7383L162.273 40.5861H164.251L166.08 48.0466H166.174L168.127 40.5861H169.926L171.884 48.0515H171.974L173.803 40.5861H175.781L172.916 50.7383H171.101L169.069 43.6149H168.99L166.952 50.7383H165.138ZM177.405 50.7383H175.442L179.016 40.5861H181.287L184.866 50.7383H182.903L180.191 42.6681H180.112L177.405 50.7383ZM177.47 46.7577H182.824V48.2349H177.47V46.7577ZM186.203 50.7383V40.5861H188.042V49.1966H192.513V50.7383H186.203ZM194.11 50.7383V40.5861H195.949V49.1966H200.42V50.7383H194.11ZM202.016 50.7383V40.5861H208.619V42.1278H203.855V44.884H208.277V46.4256H203.855V49.1966H208.659V50.7383H202.016ZM210.049 42.1278V40.5861H218.149V42.1278H215.011V50.7383H213.187V42.1278H210.049Z" fill="white"/>
</g>
<defs>
<clipPath id="clip0_1694_1474">
<rect width="218.75" height="50" fill="white" transform="translate(0.125 0.5)"/>
</clipPath>
<clipPath id="clip1_1694_1474">
<rect width="50" height="50" fill="white"/>
</clipPath>
<clipPath id="clip2_1694_1474">
<rect width="162" height="28" fill="white" transform="translate(57 8)"/>
</clipPath>
</defs>
</svg>
