<svg width="204" height="51" viewBox="0 0 204 51" fill="none" xmlns="http://www.w3.org/2000/svg">
<g clip-path="url(#clip0_1181_5778)">
<path d="M70.8672 35.3128V16.5195H74.6609V23.9162H82.0969V16.5195H85.892V35.3128H82.0969V27.0959H74.6609V35.3128H70.8672Z" fill="white"/>
<path d="M116.228 35.3128V27.4042L109.343 16.5195H113.791L118.214 23.9555L122.548 16.5195H126.919L120.009 27.4295V35.3128H116.228Z" fill="white"/>
<path d="M155.075 35.3128L148.356 16.5195H152.471L157.228 30.4297L161.83 16.5195H165.855L159.125 35.3128H155.075Z" fill="white"/>
<path d="M189.268 35.3128V16.5195H203.202V19.6992H193.061V23.8658H202.497V27.0314H193.061V32.1472H203.563V35.3128H189.268Z" fill="white"/>
<mask id="mask0_1181_5778" style="mask-type:luminance" maskUnits="userSpaceOnUse" x="0" y="0" width="46" height="51">
<path d="M45.622 0.5H0.4375V50.2031H45.622V0.5Z" fill="white"/>
</mask>
<g mask="url(#mask0_1181_5778)">
<mask id="mask1_1181_5778" style="mask-type:luminance" maskUnits="userSpaceOnUse" x="0" y="0" width="46" height="51">
<path d="M45.6214 0.5H0.4375V50.2031H45.6214V0.5Z" fill="white"/>
</mask>
<g mask="url(#mask1_1181_5778)">
<path d="M15.0359 28.1159H3.25681C2.5065 28.1159 1.78691 27.8247 1.25635 27.3061C0.725798 26.7875 0.427734 26.0842 0.427734 25.3509C0.427734 24.6177 0.725798 23.9144 1.25635 23.3958C1.78691 22.8773 2.5065 22.5859 3.25681 22.5859H15.0359C14.3966 24.3764 14.3966 26.3256 15.0359 28.1159Z" fill="white"/>
<path d="M23.0239 19.832C24.1411 19.8306 25.2335 20.1533 26.163 20.7589C27.0925 21.3645 27.8172 22.2259 28.2457 23.2344C28.6741 24.2427 28.7869 25.3525 28.5697 26.4236C28.3527 27.4945 27.8154 28.4784 27.0258 29.2509C26.2364 30.0234 25.2302 30.5497 24.1347 30.7631C23.0391 30.9767 21.9035 30.8678 20.8713 30.4502C19.8389 30.0327 18.9568 29.3253 18.336 28.4177C17.7152 27.5098 17.3838 26.4427 17.3838 25.3508C17.3836 23.8883 17.9775 22.4853 19.0352 21.4505C20.0927 20.4156 21.5274 19.8336 23.0239 19.832Z" fill="white"/>
<path d="M27.9114 3.2649H18.1367C18.6305 2.42463 19.3423 1.72653 20.2003 1.24108C21.0584 0.755628 22.0323 0.5 23.0238 0.5C24.0152 0.5 24.9891 0.755628 25.847 1.24108C26.7052 1.72653 27.4177 2.42463 27.9114 3.2649Z" fill="white"/>
<path d="M18.2363 47.4375H28.089C27.5868 48.2789 26.8679 48.9769 26.0038 49.4619C25.1396 49.947 24.1605 50.2023 23.164 50.2023C22.1674 50.2023 21.1884 49.947 20.3241 49.4619C19.4601 48.9769 18.7412 48.2789 18.239 47.4375" fill="white"/>
<path d="M42.7893 33.6325C42.7893 34.3641 42.4926 35.0659 41.9642 35.5841C41.4356 36.1023 40.7186 36.3947 39.97 36.397H34.3164C33.9481 36.405 33.5976 36.5534 33.34 36.8108C33.0823 37.0681 32.9381 37.4139 32.9381 37.7739C32.9381 38.1339 33.0823 38.4797 33.34 38.737C33.5976 38.9944 33.9481 39.1428 34.3164 39.1506C35.0653 39.1506 35.7834 39.4414 36.3129 39.9589C36.8425 40.4764 37.1398 41.1783 37.1398 41.9102C37.1398 42.6419 36.8425 43.3439 36.3129 43.8612C35.7834 44.3788 35.0653 44.6695 34.3164 44.6695H11.7305C10.9817 44.6695 10.2635 44.3788 9.73403 43.8612C9.20455 43.3439 8.90708 42.6419 8.90708 41.9102C8.90708 41.1783 9.20455 40.4764 9.73403 39.9589C10.2635 39.4414 10.9817 39.1506 11.7305 39.1506H25.8429C26.0304 39.1547 26.217 39.122 26.3914 39.0545C26.5659 38.9872 26.7248 38.8864 26.859 38.7581C26.9931 38.63 27.0997 38.4769 27.1723 38.3078C27.2451 38.1387 27.2826 37.9572 27.2826 37.7739C27.2826 37.5905 27.2451 37.4091 27.1723 37.24C27.0997 37.0709 26.9931 36.9178 26.859 36.7895C26.7248 36.6614 26.5659 36.5606 26.3914 36.4931C26.217 36.4258 26.0304 36.3931 25.8429 36.397H6.077C5.3342 36.3859 4.62569 36.0897 4.10444 35.5725C3.58319 35.0552 3.29102 34.3581 3.29102 33.6322C3.29102 32.9061 3.58319 32.2092 4.10444 31.6919C4.62569 31.1745 5.3342 30.8783 6.077 30.8672H16.7065C17.5009 31.7367 18.4743 32.4325 19.5629 32.9089C20.6517 33.3853 21.8311 33.6316 23.0239 33.6316C24.2167 33.6316 25.3959 33.3853 26.4847 32.9089C27.5732 32.4325 28.5467 31.7367 29.3411 30.8672H39.9706C40.3415 30.8675 40.7089 30.9394 41.0514 31.0786C41.3939 31.2178 41.705 31.4216 41.9667 31.6784C42.2286 31.9353 42.4361 32.2402 42.5772 32.5755C42.7183 32.9106 42.7904 33.2698 42.7893 33.6325Z" fill="white"/>
<path d="M3.25684 17.0683C3.25756 16.3377 3.55508 15.6372 4.08401 15.1209C4.61294 14.6045 5.33001 14.3146 6.07759 14.3148H11.7311C11.9168 14.3148 12.1007 14.279 12.2723 14.2095C12.444 14.1401 12.5999 14.0383 12.7312 13.9099C12.8625 13.7815 12.9667 13.6292 13.0378 13.4614C13.1089 13.2937 13.1455 13.114 13.1455 12.9325C13.1455 12.7509 13.1089 12.5712 13.0378 12.4035C12.9667 12.2357 12.8625 12.0834 12.7312 11.955C12.5999 11.8266 12.444 11.7248 12.2723 11.6553C12.1007 11.5859 11.9168 11.5501 11.7311 11.5501C10.9823 11.5501 10.2641 11.2594 9.73464 10.7419C9.20514 10.2244 8.90767 9.52253 8.90767 8.79069C8.90767 8.05884 9.20514 7.35697 9.73464 6.83947C10.2641 6.32198 10.9823 6.03125 11.7311 6.03125H34.317C35.0659 6.03125 35.784 6.32198 36.3136 6.83947C36.8429 7.35697 37.1404 8.05884 37.1404 8.79069C37.1404 9.52253 36.8429 10.2244 36.3136 10.7419C35.784 11.2594 35.0659 11.5501 34.317 11.5501H20.2032C20.0176 11.5501 19.8337 11.5859 19.662 11.6553C19.4904 11.7248 19.3345 11.8266 19.2032 11.955C19.0718 12.0834 18.9676 12.2357 18.8967 12.4035C18.8256 12.5712 18.7889 12.7509 18.7889 12.9325C18.7889 13.114 18.8256 13.2937 18.8967 13.4614C18.9676 13.6292 19.0718 13.7815 19.2032 13.9099C19.3345 14.0383 19.4904 14.1401 19.662 14.2095C19.8337 14.279 20.0176 14.3148 20.2032 14.3148H39.9686C40.7173 14.3148 41.4354 14.6055 41.965 15.123C42.4945 15.6405 42.792 16.3424 42.792 17.0743C42.792 17.806 42.4945 18.5079 41.965 19.0254C41.4354 19.5429 40.7173 19.8337 39.9686 19.8337H29.3398C28.5453 18.9643 27.572 18.2688 26.4836 17.7927C25.3951 17.3165 24.2159 17.0702 23.0234 17.0702C21.8309 17.0702 20.6517 17.3165 19.5632 17.7927C18.4748 18.2688 17.5015 18.9643 16.707 19.8337H6.07759C5.70656 19.8333 5.33923 19.7616 4.99661 19.6226C4.65397 19.4833 4.34276 19.2796 4.08078 19.0229C3.8188 18.766 3.61119 18.4613 3.4698 18.1262C3.32842 17.7908 3.25606 17.431 3.25684 17.0683Z" fill="white"/>
<path d="M45.6216 25.3506C45.6206 26.0842 45.3219 26.7875 44.7909 27.3059C44.2598 27.8244 43.54 28.1158 42.7895 28.1159H31.0117C31.6625 26.3275 31.6625 24.3744 31.0117 22.5859H42.7895C43.5398 22.5862 44.2595 22.8777 44.7905 23.3959C45.3214 23.9142 45.6203 24.6172 45.6216 25.3506Z" fill="white"/>
</g>
</g>
</g>
<defs>
<clipPath id="clip0_1181_5778">
<rect width="203.125" height="50" fill="white" transform="translate(0.4375 0.5)"/>
</clipPath>
</defs>
</svg>
