<svg width="201" height="51" viewBox="0 0 201 51" fill="none" xmlns="http://www.w3.org/2000/svg">
<g clip-path="url(#clip0_1181_5761)">
<path fill-rule="evenodd" clip-rule="evenodd" d="M41.657 8.10309L41.9099 9.68362C42.0996 11.1377 42.1944 12.5918 42.1628 14.0775C42.1628 17.3334 41.7834 20.5576 41.0248 23.7187C40.0133 27.9861 38.2431 32.0639 35.809 35.7307C32.9957 39.9033 28.9179 43.9811 23.0067 47.3318L22.2797 47.7428L21.5527 47.3318C15.6415 44.0443 11.5637 39.9349 8.75037 35.7307C6.28474 32.0639 4.54616 28.0177 3.53462 23.7187C2.77596 20.5576 2.39664 17.3334 2.39664 14.0775C2.39664 12.6234 2.45986 11.1377 2.64952 9.68362L2.8708 8.10309C2.90241 7.97665 2.90241 7.85021 2.8708 7.72376C2.83918 7.59732 2.80757 7.47088 2.71274 7.37605C2.64952 7.28121 2.55469 7.18639 2.45986 7.12316C2.36502 7.05994 2.23858 7.02833 2.14375 6.99672C2.01731 6.96511 1.89087 6.96511 1.76442 6.99672C1.63798 7.02833 1.51154 7.09155 1.41671 7.15477C1.32188 7.21799 1.22704 7.31283 1.16382 7.40766C1.1006 7.5341 1.06899 7.66054 1.03738 7.78698L0.784496 9.36751C0.594832 10.9164 0.5 12.4969 0.5 14.0775C0.5 17.4914 0.910939 20.8737 1.7012 24.1929C2.23858 26.4372 2.96563 28.65 3.88233 30.7679C4.79904 32.8858 5.90541 34.9089 7.20145 36.8371C10.1728 41.2626 14.4719 45.5932 20.6676 49.0072L21.8372 49.671C21.9952 49.7342 22.1533 49.7658 22.3113 49.7658C22.4694 49.7658 22.6274 49.7342 22.7855 49.671L23.9551 49.0072C30.1191 45.5616 34.4498 41.231 37.4212 36.8371C40.0133 32.9806 41.8783 28.6816 42.9214 24.1929C43.7117 20.8737 44.091 17.4914 44.091 14.0775C44.091 12.4969 43.9962 10.9164 43.8065 9.33591L43.5536 7.75538C43.522 7.62893 43.4904 7.50249 43.4272 7.37605C43.364 7.28121 43.2691 7.18639 43.1743 7.12316C43.0795 7.05994 42.953 6.99672 42.8266 6.96511C42.7002 6.9335 42.5737 6.9335 42.4473 6.96511C42.3208 6.99672 42.1944 7.02833 42.0679 7.09155C41.9731 7.15477 41.8783 7.24961 41.8151 7.34444C41.7518 7.43927 41.6886 7.56571 41.657 7.69215V8.10309Z" fill="#BAC3DA"/>
<path fill-rule="evenodd" clip-rule="evenodd" d="M8.18069 7.02759L22.3422 2.57049L36.7883 7.12242C36.9147 7.15403 37.0412 7.15403 37.1676 7.15403C37.294 7.15403 37.4205 7.12242 37.5469 7.0592C37.6734 6.99598 37.7682 6.93276 37.863 6.80632C37.9579 6.71148 38.0211 6.58504 38.0211 6.4586C38.0527 6.33216 38.0527 6.20571 38.0527 6.07927C38.0527 5.95283 38.0211 5.82639 37.9579 5.69995C37.8947 5.5735 37.8314 5.47867 37.7366 5.38384C37.6418 5.28901 37.5153 5.22579 37.3889 5.22579L22.6267 0.547416C22.4371 0.484195 22.2474 0.484195 22.0577 0.547416L7.64331 5.09934C7.51687 5.13095 7.42204 5.19417 7.2956 5.25739C7.20076 5.35223 7.10593 5.44706 7.07432 5.5735C7.0111 5.69994 6.97949 5.82638 6.97949 5.95283C6.97949 6.07927 6.97949 6.20572 7.0111 6.33216C7.04271 6.4586 7.10593 6.58504 7.16915 6.67987C7.23237 6.7747 7.35882 6.86954 7.48526 6.93276C7.58009 6.99598 7.70654 7.02759 7.86459 7.02759C7.92781 7.0592 8.05425 7.0592 8.18069 7.02759Z" fill="#BAC3DA"/>
<path fill-rule="evenodd" clip-rule="evenodd" d="M1.1952 8.38928L21.4576 49.2301C21.5208 49.3882 21.6473 49.5146 21.7737 49.6095C22.0898 49.7991 22.4691 49.7991 22.7852 49.6095C22.9433 49.5146 23.0697 49.3882 23.1646 49.2301L35.5243 25.3641L35.5559 25.3325L43.4586 8.35766C43.5218 8.23122 43.5534 8.10478 43.5534 7.97834C43.5534 7.85189 43.5534 7.72545 43.4902 7.59901C43.4586 7.47257 43.3954 7.34612 43.3005 7.25129C43.2373 7.15646 43.1109 7.06163 43.016 6.99841C42.9212 6.93519 42.7948 6.90357 42.6367 6.90357C42.5103 6.90357 42.3838 6.90358 42.2574 6.93519C42.1309 6.9668 42.0045 7.03002 41.9097 7.12485C41.8148 7.21968 41.72 7.31452 41.6884 7.44096L33.7857 24.4158L22.2795 46.6381L2.87056 7.44096C2.80734 7.34613 2.71251 7.21968 2.64929 7.12485C2.55446 7.03002 2.42801 6.9668 2.30157 6.93519C2.17513 6.87197 2.04869 6.87196 1.92224 6.90357C1.7958 6.90357 1.66936 6.93519 1.54292 6.99841C1.44808 7.06163 1.32164 7.15646 1.25842 7.25129C1.1952 7.34612 1.13198 7.47257 1.10037 7.59901C1.06876 7.72545 1.03715 7.85189 1.06876 7.97834C1.10037 8.13639 1.13198 8.26283 1.1952 8.38928Z" fill="#BAC3DA"/>
<path fill-rule="evenodd" clip-rule="evenodd" d="M10.8992 26.5971H33.4692C33.5956 26.5971 33.7221 26.5655 33.8485 26.5338C33.9749 26.5022 34.0698 26.4074 34.133 26.3126C34.2278 26.2177 34.2911 26.1229 34.3227 25.9965C34.4175 25.7436 34.4175 25.4907 34.3227 25.2378C34.2911 25.1114 34.1962 25.0165 34.133 24.9217C34.0382 24.8269 33.9433 24.7637 33.8485 24.7004C33.7221 24.6688 33.5956 24.6372 33.4692 24.6372H10.8992C10.7728 24.6372 10.6463 24.6688 10.5199 24.7004C10.3935 24.732 10.2986 24.8269 10.2354 24.9217C10.1406 25.0165 10.0773 25.1114 10.0457 25.2378C9.9509 25.4907 9.9509 25.7436 10.0457 25.9965C10.0773 26.1229 10.1406 26.2177 10.2354 26.3126C10.3302 26.4074 10.4251 26.4706 10.5199 26.5338C10.6463 26.5655 10.7728 26.5655 10.8992 26.5971ZM73.8043 18.0938H59.137C59.0105 18.0938 58.8841 18.1254 58.7577 18.157C58.6312 18.1886 58.5364 18.2835 58.4732 18.3783C58.3783 18.4731 58.3151 18.568 58.2835 18.6944C58.2519 18.8209 58.2203 18.9473 58.2203 19.0737V31.2438C58.2203 31.3703 58.2519 31.4967 58.2835 31.6232C58.3151 31.7496 58.3783 31.8444 58.4732 31.9393C58.568 32.0341 58.6628 32.0973 58.7577 32.1605C58.8841 32.1921 59.0105 32.2238 59.137 32.2238H73.8043V34.2784H59.137C58.9473 34.2784 58.7577 34.2468 58.568 34.2152C58.3783 34.1836 58.1887 34.1204 57.999 34.0572C57.8093 33.9939 57.6513 33.8991 57.4932 33.8043C57.3352 33.6778 57.2087 33.5514 57.0507 33.425C56.7662 33.1405 56.5765 32.8244 56.4185 32.4766C56.3553 32.287 56.292 32.0973 56.2604 31.9076C56.2288 31.718 56.1972 31.5283 56.1972 31.3387V19.1054C56.1972 18.9157 56.2288 18.726 56.2604 18.5364C56.292 18.3467 56.3553 18.157 56.4185 17.9674C56.4817 17.7777 56.5765 17.588 56.6714 17.43C56.7662 17.2719 56.8926 17.1139 57.0507 16.9874C57.1771 16.861 57.3352 16.7346 57.4932 16.6081C57.6513 16.5133 57.8093 16.4184 57.999 16.3552C58.1887 16.292 58.3783 16.2288 58.568 16.1972C58.7577 16.1656 58.9473 16.134 59.137 16.134H73.8043V18.0938ZM101.338 16.0391V18.0938H87.2072V24.1314H98.5554V26.2177H87.2072V32.2554H101.338V34.3101H85.2473V16.0391H101.338Z" fill="#BAC3DA"/>
<path d="M130.453 19.1327V24.4749C130.453 24.6645 130.421 24.8542 130.389 25.0438C130.358 25.2335 130.295 25.4232 130.231 25.6128C130.168 25.8025 130.073 25.9922 129.979 26.1502C129.852 26.3083 129.757 26.4663 129.599 26.5928C129.473 26.7192 129.315 26.8457 129.157 26.9721C128.999 27.0669 128.841 27.1618 128.651 27.225C128.461 27.2882 128.272 27.3514 128.082 27.4146C127.892 27.4463 127.703 27.4779 127.513 27.4779H124.826L130.358 34.2741H127.703L122.202 27.4779H115.754C115.438 27.4779 115.122 27.4463 114.805 27.383V34.2741H112.814V16.0664H127.545C127.734 16.0664 127.924 16.0981 128.114 16.1297C128.303 16.1613 128.493 16.2245 128.682 16.2877C128.872 16.3509 129.03 16.4458 129.188 16.5722C129.504 16.7935 129.757 17.078 129.979 17.3941C130.073 17.5521 130.168 17.7418 130.231 17.9315C130.295 18.1211 130.358 18.3108 130.389 18.5005C130.421 18.7217 130.453 18.943 130.453 19.1327ZM115.722 25.4548H127.513C127.639 25.4548 127.766 25.4232 127.892 25.3916C128.019 25.36 128.113 25.2967 128.177 25.1703C128.272 25.0755 128.335 24.9806 128.366 24.8542C128.398 24.7277 128.43 24.6013 128.43 24.4749V19.1327C128.43 18.8798 128.335 18.6269 128.177 18.4372C128.019 18.2476 127.766 18.1211 127.513 18.1211H115.722C115.596 18.1211 115.469 18.1527 115.343 18.1844C115.216 18.216 115.122 18.3108 115.058 18.4056C114.963 18.5005 114.9 18.5953 114.869 18.7217C114.837 18.8482 114.805 18.9746 114.805 19.1011V24.4432C114.805 24.6961 114.9 24.949 115.122 25.1387C115.248 25.3283 115.501 25.4548 115.722 25.4548Z" fill="#BAC3DA"/>
<path fill-rule="evenodd" clip-rule="evenodd" d="M141.008 16.0391H158.647V18.0938H150.839V34.2784H148.848V18.0938H141.008V16.0391ZM169.395 34.3101V16.0707H171.386V34.3101H169.395ZM197.907 16.0391H200.468L193.103 25.1746L200.499 34.3101H197.907L191.332 26.2177H185.642V34.3101H183.651V16.0707H185.674V24.1631H191.364L197.907 16.0391Z" fill="#BAC3DA"/>
</g>
<defs>
<clipPath id="clip0_1181_5761">
<rect width="200" height="50" fill="white" transform="translate(0.5 0.5)"/>
</clipPath>
</defs>
</svg>
