<svg width="500" height="497" viewBox="0 0 500 497" fill="none" xmlns="http://www.w3.org/2000/svg">
<g filter="url(#filter0_f_1744_3512)">
<ellipse cx="250" cy="248.5" rx="72" ry="70.5" fill="white"/>
</g>
<ellipse cx="253.5" cy="242" rx="64.5" ry="63" fill="white"/>
<path d="M206.346 383.191C172.104 383.191 147.646 372.238 135.18 354.189L132.024 348.945L113.247 317.629C116.718 323.028 121.137 327.656 126.659 331.821C140.388 342.003 160.27 348.019 185.359 348.019C257.156 348.019 344.417 299.426 380.394 239.572C392.86 218.592 397.594 199.155 395.227 182.648C394.28 176.015 392.229 169.69 389.073 164.137L406.431 193.755L412.427 203.937C420.79 222.911 417.95 247.748 401.697 275.052C365.877 334.907 278.459 383.5 206.662 383.5L206.346 383.191Z" fill="#252525" fill-opacity="0.1"/>
<path d="M178.568 340.613C153.163 340.613 132.965 334.597 119.079 323.953C113.557 319.788 108.98 314.851 105.509 309.298L105.193 308.681C92.5697 288.472 94.1477 260.088 112.61 228.772C149.06 167.067 237.584 117.085 310.485 117.085C368.006 115.023 385.122 151.023 385.122 151.023C388.278 156.885 390.487 163.21 391.434 170.152C393.801 187.275 389.225 207.33 376.444 228.772C339.993 290.478 251.47 340.459 178.726 340.459L178.568 340.613Z" fill="white"/>
<path d="M196.244 310.377C177.782 310.377 162.949 305.903 152.85 298.19C148.748 295.105 145.434 291.557 142.909 287.546L142.594 287.083C133.442 272.274 134.546 251.602 147.959 228.771C174.468 183.726 239.164 147.32 292.184 147.32C319.008 147.32 338.102 156.73 346.623 172.002C348.99 176.168 350.568 180.95 351.199 185.886C352.935 198.382 349.463 213.037 340.311 228.617C313.802 273.662 249.105 310.068 196.086 310.068L196.244 310.377Z" fill="#F6F6F6"/>
<path d="M199.869 310.38C181.723 310.38 167.363 306.06 157.422 298.501C153.477 295.57 150.164 292.022 147.797 288.166L147.481 287.703C138.487 273.202 139.591 253.148 152.846 230.78C178.725 186.815 242.001 151.18 293.915 151.18C328.139 151.18 338.887 160.435 347.092 175.399C349.459 179.564 350.879 184.038 351.511 188.974C353.246 201.161 349.933 215.508 340.78 230.78C314.902 274.745 251.626 310.38 199.869 310.38Z" fill="#F6F6F6"/>
<path d="M199.874 377.02C165.159 377.02 140.385 365.759 127.761 347.093L124.447 341.693L105.354 309.452C108.826 315.006 113.402 319.788 118.925 324.107C132.811 334.597 153.008 340.768 178.413 340.768C251.157 340.768 339.838 290.786 376.131 229.081C388.912 207.638 393.488 187.43 391.121 170.461C390.175 163.519 388.123 157.194 384.81 151.332L402.483 181.722L408.637 192.212C417.158 211.803 414.16 237.411 397.749 265.333C361.298 327.038 272.775 377.02 199.874 377.02Z" fill="#DADADA"/>
<path d="M251.945 298.655C195.455 320.097 146.38 307.294 142.593 269.962C138.806 232.476 182.042 184.345 239.164 162.903C296.128 141.46 345.045 154.573 348.2 192.213C351.514 229.699 308.278 277.212 251.945 298.655Z" fill="#0F5CB3"/>
<path d="M263.776 218.78C281.877 206.535 299.962 194.39 318.102 182.221C281.224 195.557 244.133 208.827 206.782 221.897C216.695 226.79 226.623 231.799 236.575 236.768C218.467 248.954 200.327 261.122 182.201 273.408C219.387 260.191 256.415 246.885 293.184 233.379C283.389 228.499 273.563 223.601 263.776 218.78Z" fill="white"/>
<defs>
<filter id="filter0_f_1744_3512" x="0" y="0" width="500" height="497" filterUnits="userSpaceOnUse" color-interpolation-filters="sRGB">
<feFlood flood-opacity="0" result="BackgroundImageFix"/>
<feBlend mode="normal" in="SourceGraphic" in2="BackgroundImageFix" result="shape"/>
<feGaussianBlur stdDeviation="89" result="effect1_foregroundBlur_1744_3512"/>
</filter>
</defs>
</svg>
