<svg width="20" height="20" viewBox="0 0 20 20" fill="none" xmlns="http://www.w3.org/2000/svg">
<path d="M10 1C7.35517 1 4.98618 2.15745 3.33654 3.98017L1 1.64363V6.53846H5.89483L4.3155 4.95913C5.71094 3.38522 7.72837 2.38462 10 2.38462C14.2133 2.38462 17.6154 5.78666 17.6154 10C17.6154 14.2133 14.2133 17.6154 10 17.6154C5.78666 17.6154 2.38462 14.2133 2.38462 10V9.30769H1V10C1 14.9651 5.03486 19 10 19C14.9651 19 19 14.9651 19 10C19 5.03486 14.9651 1 10 1ZM9.30769 3.76923V10.6923H13.4615V9.30769H10.6923V3.76923H9.30769Z" fill="white"/>
</svg>
