<svg width="49" height="37" viewBox="0 0 49 37" fill="none" xmlns="http://www.w3.org/2000/svg">
<path d="M11.7818 10C6.93273 10 3 14.0304 3 19C3 23.9696 6.93273 28 11.7818 28C16.6309 28 20.5636 23.9696 20.5636 19V17.4348C20.5636 15.4783 22.0909 13.913 24 13.913C25.9091 13.913 27.4364 15.4783 27.4364 17.4348V19C27.4364 23.9696 31.3691 28 36.2182 28C41.0673 28 45 23.9696 45 19C45 14.0304 41.0673 10 36.2182 10C33.0873 10 30.3382 11.6829 28.7727 14.2264C27.7418 12.622 25.9855 11.5652 24 11.5652C22.0145 11.5652 20.2582 12.622 19.2273 14.2264C17.6618 11.6829 14.9127 10 11.7818 10ZM11.7818 12.3478C15.3709 12.3478 18.2727 15.3217 18.2727 19C18.2727 22.6783 15.3709 25.6522 11.7818 25.6522C8.19273 25.6522 5.29091 22.6783 5.29091 19C5.29091 15.3217 8.19273 12.3478 11.7818 12.3478ZM36.2182 12.3478C39.8073 12.3478 42.7091 15.3217 42.7091 19C42.7091 22.6783 39.8073 25.6522 36.2182 25.6522C32.6291 25.6522 29.7273 22.6783 29.7273 19C29.7273 15.3217 32.6291 12.3478 36.2182 12.3478Z" fill="white"/>
</svg>
