<svg width="35" height="34" viewBox="0 0 35 34" fill="none" xmlns="http://www.w3.org/2000/svg">
<path d="M31.961 9.30522C31.2369 7.80603 30.0809 6.52359 28.6693 5.63853C27.2605 4.74816 25.5907 4.26684 23.9237 4.25781C23.2299 4.27534 22.5307 4.32369 21.8561 4.48572C21.1782 4.62916 20.521 4.84909 19.8984 5.13066C19.2736 5.4085 18.6771 5.73947 18.1203 6.12569C17.9083 6.27337 17.7043 6.43328 17.5009 6.59478C17.4456 6.55122 17.3925 6.50394 17.3372 6.46144C16.9441 6.16925 16.5414 5.89247 16.1132 5.65234C15.2659 5.16253 14.3431 4.78216 13.3725 4.54841C11.4388 4.06816 9.31536 4.22275 7.47299 5.04937C5.62902 5.86325 4.08361 7.31356 3.1603 9.09909C2.23433 10.8836 1.91824 12.9756 2.36874 14.963C2.82243 16.9111 3.79727 18.5532 4.87677 20.0195C5.96955 21.4857 7.2079 22.7889 8.50521 24.006C11.1211 26.4306 13.9261 28.5221 16.9478 30.4118L17.4977 30.756L18.0539 30.4118C20.5625 28.8526 22.8925 27.1494 25.1259 25.2411C27.3338 23.3223 29.4545 21.2307 31.0855 18.6202C31.8813 17.3117 32.565 15.8438 32.7839 14.1704C32.9873 12.4858 32.6861 10.8113 31.961 9.30522ZM30.3778 13.8766C30.2466 15.0555 29.7356 16.2625 29.0625 17.3962C27.6902 19.6747 25.7294 21.6993 23.6506 23.5491C21.7275 25.2427 19.6391 26.82 17.503 28.2262C14.8765 26.4965 12.3276 24.5303 10.0581 22.3665C8.8468 21.202 7.71046 19.9679 6.75102 18.6446C5.79849 17.3266 5.01436 15.8954 4.70465 14.4525C4.4013 13.0553 4.64833 11.5168 5.33471 10.2445C6.0179 8.96256 7.15371 7.92716 8.48449 7.36138C9.81261 6.78763 11.3293 6.692 12.7494 7.06228C13.4602 7.24238 14.1508 7.53509 14.7957 7.92025C15.1214 8.10672 15.429 8.32666 15.7281 8.5535C15.8752 8.66984 16.0192 8.78884 16.1568 8.91156C16.2822 9.02525 16.4447 9.18038 16.5111 9.25581L17.5689 10.2423L18.4906 9.25581C18.6027 9.13575 18.821 8.92909 19.0086 8.77291C19.2056 8.60609 19.4134 8.44938 19.6259 8.2985C20.0519 7.99781 20.5083 7.74175 20.9768 7.52925C21.4443 7.3125 21.9304 7.14622 22.425 7.03944C22.9175 6.91353 23.4216 6.88272 23.9247 6.86041C25.1195 6.85191 26.3079 7.17491 27.329 7.79913C28.3506 8.41909 29.199 9.33231 29.7345 10.4038C30.2705 11.4626 30.5043 12.718 30.3778 13.8766Z" fill="white"/>
</svg>
