<svg width="22" height="15" viewBox="0 0 22 15" fill="none" xmlns="http://www.w3.org/2000/svg">
<path d="M20.823 8.43236C14.7462 8.45736 8.67765 8.47403 2.51743 8.49904C2.65914 8.64075 2.78418 8.76579 2.90922 8.89083C4.49304 10.4746 6.07685 12.0585 7.66067 13.6423C7.90241 13.884 8.25252 14.1007 8.06913 14.5175C7.86907 14.951 7.48562 14.951 7.08549 14.8843C4.74311 12.5419 2.40073 10.1996 0.0583511 7.85718C0.175053 7.70713 0.266748 7.53208 0.400122 7.39871C2.51743 5.28139 4.64308 3.15575 6.76039 1.03843C6.91044 0.888388 7.09383 0.704998 7.26888 0.67999C7.48562 0.663319 7.77737 0.738342 7.92742 0.888388C8.05246 1.01343 8.07746 1.32185 8.01078 1.50524C7.93575 1.73031 7.74403 1.92204 7.56897 2.09709C6.09352 3.58921 4.59307 5.073 3.10928 6.55678C2.95924 6.70683 2.81753 6.84854 2.57579 7.09028C2.90922 7.10695 3.11762 7.11529 3.32601 7.12362C8.95273 7.13196 14.5794 7.12362 20.1978 7.12362C21.0314 7.12362 21.2231 7.29868 21.2231 8.01556C21.0981 8.15727 20.9564 8.29898 20.823 8.43236Z" fill="#107DEF"/>
</svg>
