<svg width="18" height="14" viewBox="0 0 18 14" fill="none" xmlns="http://www.w3.org/2000/svg">
<path d="M16.6108 0.5C16.8294 0.714267 17.048 0.931883 17.2666 1.14615C17.5134 1.38385 17.7638 1.61486 18 1.83917C13.9028 5.72611 9.81273 9.60971 5.71205 13.5C5.68384 13.4732 5.63448 13.4364 5.59216 13.3929C3.77982 11.6754 1.97101 9.95455 0.158668 8.23706C0.109305 8.19019 0.0528893 8.15336 0 8.11319C0 8.08975 0 8.06966 0 8.04623C0.0669931 7.99266 0.133986 7.94579 0.197453 7.88553C0.606464 7.50052 1.00842 7.1155 1.41391 6.73384C2.84545 8.0931 4.27346 9.44901 5.70852 10.8083C5.77551 10.7514 5.8143 10.7212 5.84956 10.6877C9.4002 7.31638 12.9544 3.94502 16.505 0.573654C16.5297 0.550219 16.5508 0.523435 16.572 0.5C16.5861 0.5 16.5967 0.5 16.6108 0.5Z" fill="white"/>
</svg>
